<svg width="64" height="56.99999999999999" xmlns="http://www.w3.org/2000/svg" xmlns:xlink="http://www.w3.org/1999/xlink" stroke="null" style="vector-effect: non-scaling-stroke;">
 <defs stroke="null" style="vector-effect: non-scaling-stroke;">
  <g stroke="null" style="vector-effect: non-scaling-stroke;" id="stroke0_24_3795">
   <path stroke="null" style="vector-effect: non-scaling-stroke;" id="svg_1" fill-opacity="0.58" fill="#1E1E1E" d="m188.25,354.718c0.688,-0.246 1.595,-0.253 2.016,-0.014c1.142,0.647 -0.169,2.296 -1.825,2.296c-1.769,0 -1.909,-1.666 -0.191,-2.282zm7.5,-11.972c2.396,-0.548 2.984,0.152 3.783,4.504c0.459,2.497 0.318,3.75 -0.422,3.75c-0.611,0 -1.111,-0.498 -1.111,-1.107c0,-0.609 -0.683,-0.845 -1.517,-0.525c-1.484,0.57 -5.482,-2.049 -5.483,-3.59c0,-0.428 0.675,-0.778 1.5,-0.778c0.825,0 1.5,-0.417 1.5,-0.927c0,-0.509 0.788,-1.107 1.75,-1.327zm6.25,-1.646c0,-1.167 0.267,-1.233 1.2,-0.3c0.66,0.66 2.07,1.2 3.133,1.2c4.114,0 6.921,5.35 3.417,6.514c-5.572,1.85 -8.975,0.667 -6.535,-2.273c0.803,-0.968 0.788,-1.638 -0.057,-2.483c-0.637,-0.637 -1.158,-1.833 -1.158,-2.658zm44,0.793c0.001,-1.252 2.743,-1.116 3.541,0.174c0.363,0.586 0.454,1.272 0.202,1.523c-0.697,0.698 -3.743,-0.683 -3.743,-1.697zm-63.941,-0.893c1.074,0 1.252,1.355 0.302,2.306c-0.924,0.924 -2.501,-0.27 -1.818,-1.375c0.316,-0.512 0.998,-0.931 1.516,-0.931zm10.497,-17.09c0.747,-1.209 1.602,-1.106 3.628,0.434c2.508,1.906 3.259,6.043 1.38,7.603c-0.86,0.714 -1.579,1.805 -1.597,2.425c-0.054,1.819 -3.652,5.627 -5.318,5.628c-0.842,0 -1.809,0.45 -2.149,1c-1.097,1.774 -2.654,1.062 -2.024,-0.926c0.364,-1.144 0.047,-2.26 -0.78,-2.75c-0.943,-0.558 -1.244,-2.035 -0.935,-4.574c0.456,-3.734 1.877,-4.712 3.903,-2.686c1.41,1.41 4.666,-1.758 3.89,-3.783c-0.308,-0.804 -0.307,-1.871 0.002,-2.371zm18.944,17.09c0.275,0 0.5,0.225 0.5,0.5c0,0.275 -0.225,0.5 -0.5,0.5c-0.275,0 -0.5,-0.225 -0.5,-0.5c0,-0.275 0.225,-0.5 0.5,-0.5zm-13,-2c0.275,0 0.5,0.225 0.5,0.5c0,0.275 -0.225,0.5 -0.5,0.5c-0.275,0 -0.5,-0.225 -0.5,-0.5c0,-0.275 0.225,-0.5 0.5,-0.5zm-18,-4c0.275,0 0.5,0.225 0.5,0.5c0,0.275 -0.225,0.5 -0.5,0.5c-0.275,0 -0.5,-0.225 -0.5,-0.5c0,-0.275 0.225,-0.5 0.5,-0.5zm31.117,-5c0.21,0.001 0.383,0.9 0.383,2c0,1.1 -0.408,2 -0.906,2c-0.499,0 -0.671,-0.9 -0.384,-2c0.288,-1.1 0.696,-2 0.907,-2zm3.383,2c0.733,0 1.033,0.3 0.667,0.667c-0.367,0.366 -0.967,0.366 -1.334,0c-0.366,-0.367 -0.066,-0.667 0.667,-0.667zm-10.5,-3c0.825,0 1.5,0.45 1.5,1c0,0.55 -0.675,1 -1.5,1c-0.825,0 -1.5,-0.45 -1.5,-1c0,-0.55 0.675,-1 1.5,-1zm3.5,1c0.733,0 1.033,0.3 0.667,0.667c-0.367,0.366 -0.967,0.366 -1.334,0c-0.366,-0.367 -0.066,-0.667 0.667,-0.667zm-29,-4c2.293,0 2.685,1.523 0.598,2.324c-1.472,0.565 -2.598,-0.082 -2.598,-1.491c0,-0.458 0.9,-0.833 2,-0.833zm-29.333,-8.333c1.062,-1.062 8.333,-0.771 8.333,0.333c0,0.55 -0.45,1 -1,1c-0.55,0 -1,0.675 -1,1.5c0,0.825 0.48,1.5 1.066,1.5c1.478,0.001 0.726,5.249 -0.824,5.759c-0.754,0.248 -1.504,-0.817 -1.872,-2.661c-0.528,-2.639 -0.952,-2.99 -2.993,-2.478c-2.354,0.591 -3.612,-3.051 -1.71,-4.953zm-51.7022,0.875c1.679,-2.022 6.0352,-2.035 6.0352,-0.017c-0.001,1.949 -4.9324,3.943 -6.3203,2.555c-0.6599,-0.66 -0.5638,-1.515 0.2851,-2.538zm75.5352,0.458c0.275,0 0.5,0.225 0.5,0.5c0,0.275 -0.225,0.5 -0.5,0.5c-0.275,0 -0.5,-0.225 -0.5,-0.5c0,-0.275 0.225,-0.5 0.5,-0.5zm30.5,-2c0.55,0 1,0.45 1,1c0,0.55 -0.45,1 -1,1c-0.55,0 -1,-0.45 -1,-1c0,-0.55 0.45,-1 1,-1zm33.5,1c0.275,0 0.5,0.225 0.5,0.5c0,0.275 -0.225,0.5 -0.5,0.5c-0.275,0 -0.5,-0.225 -0.5,-0.5c0,-0.275 0.225,-0.5 0.5,-0.5zm-112.348,-6.129c2.184,-1.407 4.242,-0.536 5.645,2.391c0.722,1.505 1.738,2.738 2.258,2.738c0.52,0 0.945,0.48 0.945,1.067c-0.001,1.231 -4.163,0.188 -5.106,-1.279c-0.335,-0.518 -1.443,-0.795 -2.464,-0.615c-2.253,0.397 -3.268,-3.02 -1.278,-4.302zm35.454,4.545c-0.373,-0.973 -0.15,-1.43 0.581,-1.187c1.494,0.498 2.318,2.771 1.003,2.771c-0.537,0 -1.249,-0.713 -1.584,-1.584zm37.835,-28.416c1.879,0 2.893,1.676 1.526,2.52c-0.654,0.405 -0.022,1.626 1.638,3.165c2.823,2.615 2.79,2.718 -1.743,5.324c-1.969,1.132 -3.142,8.312 -1.238,7.582c1.403,-0.538 3.69,1.761 2.719,2.733c-0.353,0.352 -1.649,0.386 -2.882,0.077c-2.566,-0.644 -4.234,1.226 -2.574,2.886c1.33,1.33 1.493,5.713 0.213,5.713c-0.496,-0.001 -1.454,-2.308 -2.131,-5.128c-0.814,-3.395 -1.83,-5.284 -3.007,-5.592c-2.201,-0.576 -3.265,-4.21 -1.763,-6.02c1.689,-2.035 -0.585,-4.015 -2.646,-2.304c-0.842,0.699 -1.284,1.67 -0.983,2.157c0.301,0.488 0.124,0.887 -0.395,0.887c-0.518,0 -0.806,2.022 -0.64,4.491c0.312,4.624 -1.26,7.276 -2.195,3.702c-0.613,-2.344 -4.428,-3.668 -5.513,-1.914c-0.53,0.859 -1.052,0.896 -1.818,0.13c-1.461,-1.461 -0.191,-4.409 1.9,-4.409c1.13,0 2.3,-1.679 3.505,-5.03c1.471,-4.091 2.068,-4.815 3.197,-3.878c1.105,0.917 1.389,0.753 1.389,-0.801c0,-3.65 4.312,-4.86 7.891,-2.214c3.709,2.743 3.788,3.222 0.859,5.192c-2.774,1.865 -1.737,3.33 1.232,1.741c1.474,-0.789 2.099,-1.999 1.98,-3.832c-0.096,-1.473 -0.126,-3.69 -0.068,-4.928c0.059,-1.243 0.751,-2.25 1.547,-2.25zm32.559,26c0.55,0 1,0.45 1,1c0,0.55 -0.45,1 -1,1c-0.55,0 -1,-0.45 -1,-1c0,-0.55 0.45,-1 1,-1zm-28.5,0c0.275,0 0.5,0.225 0.5,0.5c0,0.275 -0.225,0.5 -0.5,0.5c-0.275,0 -0.5,-0.225 -0.5,-0.5c0,-0.275 0.225,-0.5 0.5,-0.5zm35.043,-1.069c0.75,-1.215 3.457,-1.207 3.457,0.01c0,1.35 -1.823,2.286 -3.016,1.549c-0.559,-0.346 -0.758,-1.047 -0.441,-1.559zm14.01,-0.016c0.322,-0.521 1.011,-0.684 1.532,-0.362c0.521,0.322 0.684,1.011 0.362,1.532c-0.322,0.521 -1.011,0.684 -1.532,0.362c-0.521,-0.322 -0.684,-1.011 -0.362,-1.532zm-70.303,-258.8154c1.159,-0.1549 0.886,3.7093 -0.408,5.7813c-1.488,2.383 -0.369,5.3222 1.901,4.9912c4.558,-0.6629 8.476,2.9539 6.188,5.7109c-1.657,1.9959 -0.271,3.3388 4.181,4.0508c2.988,0.4779 3.853,1.0151 3.425,2.1289c-0.314,0.82 -0.059,2.1083 0.568,2.8643c1.306,1.5718 7.895,1.8829 7.895,0.373c0,-0.55 -0.9,-1 -2,-1c-1.149,0 -2,-0.6674 -2,-1.5674c0,-1.0987 0.583,-1.3822 1.949,-0.9482c1.235,0.3918 2.651,-0.083 3.863,-1.2959c4.314,-4.313 13.188,-3.079 13.188,1.834c0,0.8679 0.501,2.0785 1.113,2.6904c1.351,1.351 0.332,3.2871 -1.731,3.2871c-0.825,0.0001 -1.222,0.45 -0.882,1c0.34,0.5499 1.491,0.9999 2.559,1c1.068,0 1.941,0.5089 1.941,1.1309c0,0.7259 1.21,0.934 3.382,0.582c1.961,-0.318 3.869,-0.0617 4.542,0.6113c0.879,0.8788 1.365,0.8257 2.012,-0.2197c0.694,-1.123 1.26,-0.999 3.049,0.667c2.797,2.6068 2.295,5.6387 -0.995,6.0088c-6.066,0.6819 -6.654,1.0707 -6.733,4.4463c-0.19,8.1054 1.086,9.5144 8.25,9.1144c6.106,-0.341 6.482,-0.233 7.051,2.035c0.448,1.784 1.106,2.263 2.581,1.877c1.424,-0.372 2.136,0.081 2.537,1.615c0.306,1.173 0.955,2.132 1.441,2.132c2.173,0 0.556,1.716 -2.74,2.908c-3.566,1.29 -5.306,0.589 -5.362,-2.158c-0.008,-0.412 -0.517,-0.75 -1.132,-0.75c-0.632,0 -0.884,0.886 -0.582,2.043c0.351,1.342 -0.124,2.454 -1.383,3.241c-2.614,1.632 -2.409,2.716 0.515,2.716c1.486,0 2.66,0.718 3.019,1.848c1.604,5.054 10.548,4.987 10.548,-0.079c0,-2.566 0.223,-2.829 1.5,-1.769c1.674,1.39 2.059,6 0.5,6c-0.55,0 -1,1.125 -1,2.5c0,3.007 2.534,3.389 3.291,0.496c0.347,-1.329 1.056,-1.8 2.103,-1.398c1.994,0.765 3.733,-3.444 3.511,-8.497c-0.087,-1.98 0.172,-4.388 0.575,-5.351c0.978,-2.333 -0.636,-2.217 -3.48,0.25c-2.974,2.58 -3.653,2.519 -4.383,-0.389c-0.367,-1.463 -1.59,-2.638 -3.151,-3.03c-1.403,-0.352 -2.84,-1.415 -3.193,-2.361c-0.353,-0.946 -1.458,-2.308 -2.457,-3.027c-2.114,-1.521 -2.469,-4.381 -0.447,-3.605c0.821,0.315 1.671,-0.397 2.127,-1.781c0.758,-2.307 0.758,-2.307 1.201,-0.057c0.516,2.624 1.57,2.84 3.66,0.75c1.666,-1.666 4.643,-2.024 4.643,-0.559c0,0.518 -0.422,1.201 -0.937,1.52c-0.817,0.505 -4.063,6.251 -4.063,7.193c0.001,0.19 0.874,0.346 1.941,0.346c1.068,0 2.219,0.45 2.559,1c1.081,1.749 2.221,1.088 3.516,-2.039c1.101,-2.657 1.034,-3.204 -0.53,-4.348c-1.245,-0.91 -1.439,-1.524 -0.637,-2.019c2.751,-1.701 1.292,-4.8717 -1.944,-4.225c-2.545,0.509 -3.189,0.263 -3.62,-1.3856c-0.288,-1.103 -1.592,-2.2736 -2.897,-2.6006c-1.916,-0.481 -2.257,-1.0574 -1.772,-2.9892c0.363,-1.4465 0.162,-2.3932 -0.508,-2.3936c-0.609,0 -1.108,0.5791 -1.108,1.2871c0,0.7079 -0.886,1.3535 -1.968,1.4356c-1.533,0.115 -1.78,-0.2251 -1.117,-1.5381c0.468,-0.9272 1.41,-2.8848 2.092,-4.3506c1.418,-3.047 4.835,-4.4089 5.661,-2.2559c0.721,1.8789 2.332,1.8249 2.332,-0.0781c0,-0.7736 -0.396,-1.4152 -0.898,-1.4922l-0.204,-0.0156c-0.502,-0.077 -0.898,-0.7186 -0.898,-1.4922c0,-1.004 1.004,-1.5 3.035,-1.5c1.67,0 4.071,-0.6788 5.338,-1.5078c2.578,-1.69 6.606,1.1157 5.1,3.5517c-0.507,0.8199 -0.086,0.9681 1.407,0.4942c2.435,-0.773 3.988,1.6746 2.363,3.7246c-1.186,1.494 -2.225,10.2105 -1.36,11.3945c0.976,1.334 4.943,3.3428 6.603,3.3428c1.9,0 1.892,0.751 -0.048,4.472c-1.375,2.639 -1.381,3.096 -0.05,4.07c1.306,0.954 1.248,1.279 -0.444,2.498c-2.448,1.765 -2.778,9.426 -0.444,10.322c0.825,0.316 1.5,0.139 1.5,-0.393c0,-1.42 3.328,-1.181 5.48,0.393c2.132,1.559 5.52,1.024 5.52,-0.872c0,-1.64 2.988,-2.83 3.036,-1.209c0.02,0.671 1.143,-0.131 2.495,-1.781c1.728,-2.108 2.461,-2.513 2.464,-1.361c0.003,1.079 1.199,1.862 3.505,2.295c2.634,0.494 3.5,1.159 3.5,2.685c0,1.401 0.54,1.917 1.75,1.668c2.634,-0.541 4.247,2.125 2.975,4.917c-0.575,1.263 -1.4,2.296 -1.833,2.296c-1.601,0.001 -0.536,7.999 1.07,8.032c2.361,0.049 5.036,2.473 5.053,4.578c0.019,2.318 1.074,3.857 2.735,3.99c0.688,0.055 2.15,0.167 3.25,0.25c1.1,0.083 2,0.825 2,1.65c0,0.825 0.45,1.5 1,1.5c0.55,0 1,0.502 1,1.117c0,0.655 -0.826,0.862 -2,0.5c-1.1,-0.34 -2.887,-0.891 -3.971,-1.226c-1.68,-0.519 -2.067,-0.003 -2.628,3.5c-0.679,4.25 -1.266,4.844 -3.038,3.072c-0.716,-0.716 -1.932,-0.697 -3.929,0.062c-2.028,0.771 -2.998,0.781 -3.246,0.037c-0.761,-2.282 -3.188,-1.004 -3.203,1.688c-0.02,3.465 -0.895,4.796 -3.735,5.683c-1.238,0.386 -2.25,1.121 -2.25,1.634c0,1.173 1.304,1.205 2.55,0.062c2.325,-2.131 6.21,-2.154 6.763,-0.04c0.404,1.546 0.163,1.924 -0.957,1.494c-1.081,-0.415 -1.45,0.051 -1.326,1.671c0.094,1.235 -0.141,3.217 -0.522,4.404c-0.801,2.495 -4.508,3.932 -4.508,1.748c0,-1.586 -0.198,-1.651 -2.418,-0.799c-0.87,0.334 -1.596,1.571 -1.614,2.75c-0.049,3.348 -2.793,6.535 -3.992,4.638c-0.55,-0.87 -0.952,-1.003 -0.961,-0.318c-0.008,0.647 -0.803,1.328 -1.765,1.513c-2.112,0.408 -2.59,10.486 -0.595,12.56c1.611,1.675 7.66,1.675 7.075,0c-0.241,-0.687 -1.131,-1.129 -1.979,-0.98c-1.081,0.189 -1.497,-0.483 -1.396,-2.249c0.19,-3.294 2.887,-3.306 4.646,-0.02c1.16,2.169 1.549,2.319 2.919,1.131c1.869,-1.622 4.08,-1.074 4.08,1.01c0,0.812 -0.45,1.198 -1,0.858c-0.55,-0.34 -1,0.084 -1,0.941c0,0.857 0.45,1.559 1,1.559c0.55,0 1,0.801 1,1.781c0,1.06 1.214,2.239 3,2.913c3.264,1.232 4.192,4.911 1.5,5.944c-3.886,1.492 -0.816,4.362 4.665,4.362c1.971,0 2.849,0.429 2.558,1.25c-0.244,0.688 -1.406,1.143 -2.583,1.012c-1.177,-0.131 -2.14,0.206 -2.14,0.75c0,0.543 0.436,0.988 0.969,0.988c0.532,0 0.728,0.625 0.435,1.389c-0.327,0.853 -1.378,1.187 -2.719,0.864c-1.789,-0.43 -1.959,-0.282 -0.935,0.811c1.675,1.79 1.577,2.936 -0.25,2.936c-1,0 -1.5,1 -1.5,3c0,1.972 0.503,3 1.469,3c0.863,0 1.242,-0.59 0.919,-1.432c-0.779,-2.028 4.608,-4.709 6.893,-3.431c0.945,0.529 1.719,1.615 1.719,2.413c0,0.797 0.909,1.45 2.019,1.45c1.635,0 1.904,0.459 1.413,2.413c-0.424,1.691 0.02,3.039 1.481,4.5c2.701,2.701 2.632,3.087 -0.548,3.087c-1.527,0 -3.611,1.052 -4.953,2.5c-2.801,3.023 -4.002,3.134 -5.412,0.5c-0.589,-1.1 -1.917,-2 -2.952,-2c-1.035,0 -2.031,-0.439 -2.215,-0.974c-0.183,-0.536 -1.314,-0.717 -2.514,-0.402c-1.308,0.344 -1.972,1.117 -1.659,1.933c0.328,0.855 -0.439,1.6 -2.069,2.01c-1.425,0.357 -2.591,1.051 -2.591,1.541c-0.001,0.491 -1.401,0.892 -3.111,0.892c-3.014,0 -3.091,-0.109 -2.455,-3.5c0.41,-2.187 0.264,-3.5 -0.389,-3.5c-0.575,0 -1.045,-0.675 -1.045,-1.5c0,-0.825 -0.45,-1.5 -1,-1.5c-0.55,0 -1,0.45 -1,1c0,0.516 -0.791,0.944 -1.796,0.995l-0.408,0.01c-1.005,0.052 -1.796,0.484 -1.796,1.005c0,0.555 0.9,1.78 2,2.722c1.1,0.942 2,2.464 2,3.383c0,1.799 1.869,2.838 5.332,2.964c1.192,0.043 1.672,0.284 1.066,0.534c-0.679,0.28 -0.976,2.671 -0.775,6.229c0.596,10.517 -14.934,12.256 -23.873,2.673c-4.838,-5.187 -17.75,-8.469 -17.75,-4.513c0,1.811 -3.499,2.036 -4.763,0.307c-1.141,-1.56 -1.442,-1.601 -2.261,-0.304c-2.68,4.239 4.702,9.217 9.83,6.629c3.254,-1.642 5.194,-1.12 5.194,1.398c0,1.026 1.098,3.049 2.438,4.496c3.481,3.756 3.071,9.444 -0.816,11.317c-2.139,1.031 -2.664,1.851 -2.248,3.508c0.82,3.269 -0.719,5.028 -3.737,4.271c-2.418,-0.607 -2.569,-0.431 -2.445,2.864c0.101,2.694 0.56,3.512 1.97,3.512c2.63,0 2.268,1.488 -0.861,3.538c-1.844,1.209 -2.821,1.403 -3.083,0.615c-0.565,-1.695 -3.283,-1.404 -5.485,0.588c-1.841,1.667 -2.006,1.634 -3.828,-0.75c-1.047,-1.37 -2.378,-3.059 -2.956,-3.754c-0.578,-0.694 -0.806,-1.659 -0.506,-2.145c0.3,-0.485 -0.127,-1.14 -0.949,-1.456c-0.822,-0.315 -1.494,-1.461 -1.494,-2.546c0,-2.844 -1.718,-3.486 -2.986,-1.115c-0.874,1.633 -0.689,2.458 0.949,4.216c1.121,1.202 2.037,2.564 2.037,3.029c0,1.43 -3.35,2.231 -3.791,0.907c-0.226,-0.679 -1.437,-2.222 -2.689,-3.43c-2.432,-2.345 -3.708,-6.181 -3.808,-11.447c-0.034,-1.788 -0.417,-3.249 -0.852,-3.25c-1.196,0 -2.891,3.636 -2.075,4.451c1.766,1.767 1.835,13.548 0.086,14.629c-0.722,0.446 -0.927,1.173 -0.455,1.616c0.472,0.442 1.059,0.242 1.304,-0.446c0.618,-1.729 2.944,-1.569 3.642,0.25c0.415,1.084 -0.11,1.5 -1.893,1.5c-1.483,0 -2.469,0.575 -2.469,1.441c0,1.947 2.049,3.098 2.942,1.653c0.396,-0.639 1.469,-0.873 2.388,-0.521c1.133,0.435 1.67,0.124 1.67,-0.966c0,-2.193 2.991,-2.052 3.036,0.143c0.028,1.384 0.507,1.174 2.288,-1c1.916,-2.34 4.676,-3.715 4.676,-2.329c0,1.953 -8.443,8.572 -10.216,8.01c-1.793,-0.569 -1.976,-0.332 -1.428,1.852c0.632,2.516 -2.963,4.695 -5.33,3.233c-0.486,-0.3 -1.028,0.438 -1.205,1.641c-0.176,1.202 -0.879,2.37 -1.562,2.595c-0.891,0.293 -1.067,-0.46 -0.625,-2.672c0.459,-2.296 0.251,-3.08 -0.82,-3.08c-3.842,0 -6.005,-3.924 -3.838,-6.966c1.113,-1.563 2.024,-4.051 2.024,-5.528c0,-1.547 0.918,-3.428 2.164,-4.438c2.589,-2.096 3.675,-6.604 1.379,-5.723c-0.814,0.312 -1.783,0.076 -2.154,-0.525c-0.427,-0.69 -1.351,-0.214 -2.51,1.294c-1.309,1.703 -1.84,1.942 -1.857,0.836c-0.012,-0.853 0.54,-2.146 1.228,-2.875c1,-1.06 1,-1.417 0,-1.783c-0.687,-0.252 -1.25,-1.745 -1.25,-3.316c0,-3.478 -0.585,-3.877 -4.75,-3.243c-3.236,0.492 -4.606,2.267 -1.75,2.267c1.785,0 2.137,6.487 0.41,7.556c-1.05,0.649 -9.91,1.315 -9.91,0.746c0.001,-1.094 3.542,-4.085 4.29,-3.623c0.514,0.318 1.326,-0.043 1.806,-0.801c1.283,-2.024 1.093,-2.888 -0.501,-2.276c-0.95,0.364 -1.623,-0.455 -2.08,-2.531c-0.858,-3.909 -2.515,-3.993 -2.515,-0.128c0,2.828 -3.492,10.057 -4.858,10.057c-1.268,-0.001 -3.105,-3.933 -2.533,-5.422c0.316,-0.826 -0.128,-2.912 -0.988,-4.636c-1.34,-2.687 -1.354,-3.053 -0.092,-2.569c0.809,0.31 1.471,0.098 1.471,-0.472c0,-0.57 0.824,-0.774 1.832,-0.454c2.104,0.668 5.736,-2.716 4.707,-4.384c-1.049,-1.698 -3.305,-1.235 -4.871,1c-1.419,2.027 -1.468,2.01 -2.8,-1c-1.692,-3.822 -3.306,-4.002 -2.563,-0.286c0.495,2.475 0.181,2.895 -2.897,3.858c-3.107,0.973 -3.396,0.904 -2.89,-0.693c0.748,-2.355 -1.522,-3.686 -2.699,-1.582c-1.346,2.405 -3.019,2.002 -5.682,-1.369c-3.741,-4.736 -8.616,-4.332 -7.808,0.647c0.324,2.001 1.462,4.451 2.528,5.444c1.067,0.993 2.182,2.394 2.478,3.112c0.409,0.991 0.885,0.88 1.975,-0.461c1.752,-2.157 4.29,-1.369 5.059,1.569c0.448,1.715 0.821,1.908 1.798,0.931c1.666,-1.666 4.494,-1.559 5.167,0.194c0.798,2.08 -2.206,4.399 -3.334,2.573c-1.111,-1.798 -4,0.397 -4,3.039c0,0.987 -0.562,2.023 -1.25,2.302c-0.943,0.382 -0.884,0.76 0.237,1.538c1.27,0.882 1.152,1.343 -0.818,3.178c-1.293,1.204 -2.055,2.796 -1.737,3.627c0.312,0.814 0.568,2.354 0.568,3.423c0,1.374 0.912,2.125 3.112,2.565c2.513,0.503 2.801,0.797 1.492,1.53c-0.89,0.498 -2.066,0.63 -2.612,0.293c-0.546,-0.337 -0.992,0.089 -0.992,0.946c0,0.864 -0.845,1.559 -1.895,1.559c-2.191,0 -6.334,-7.371 -4.932,-8.773c1.717,-1.718 1.895,-7.986 0.245,-8.62c-0.85,-0.326 -1.227,-1.108 -0.838,-1.737c0.397,-0.642 -0.303,-1.907 -1.594,-2.881c-1.266,-0.954 -2.368,-2.637 -2.449,-3.739c-0.231,-3.138 -3.269,-5.717 -5.021,-4.263c-0.806,0.668 -1.993,0.833 -2.722,0.378c-3.19,-1.99 -4.47,-1.351 -4.608,2.298c-0.074,1.98 -0.377,4.365 -0.674,5.298c-0.443,1.397 -0.006,1.618 2.475,1.254c1.811,-0.266 3.013,0.002 3.013,0.672c0,0.653 1.861,1.113 4.5,1.113c4.1,0 4.5,0.216 4.5,2.433c0,2.709 -2.73,4.105 -6,3.067c-3.153,-1.001 -2.331,1.186 1,2.66c3.501,1.55 3.842,3.319 0.939,4.873c-2.117,1.132 -2.188,3.467 -0.106,3.467c1.177,0 1.232,0.536 0.384,3.778c-0.309,1.18 -1.068,1.587 -2.257,1.209c-0.985,-0.312 -2.08,-0.1 -2.435,0.472c-0.354,0.573 -1.516,1.041 -2.584,1.041c-1.068,0 -1.941,0.48 -1.941,1.067c0,0.625 -0.86,0.794 -2.074,0.41c-2.387,-0.758 -8.171,1.318 -7.354,2.639c0.3,0.486 0.068,0.884 -0.513,0.884c-0.582,0 -1.059,-0.45 -1.059,-1c0,-0.55 -1.053,-1 -2.339,-1c-5.023,0 -5.501,-8.964 -0.562,-10.531c2.412,-0.766 6.901,-5.16 6.901,-6.755c0,-0.546 0.787,-1.591 1.75,-2.322c1.597,-1.212 1.519,-1.331 -0.883,-1.36c-4.029,-0.049 -4.451,-4.224 -0.707,-6.992c2.861,-2.115 1.987,-8.04 -1.186,-8.04c-0.536,0 -0.974,-0.5 -0.974,-1.108c0,-0.693 0.969,-0.866 2.58,-0.461c2.329,0.584 2.511,0.425 1.876,-1.642c-0.958,-3.114 -0.986,-3.131 -4.886,-2.984c-2.799,0.105 -3.498,-0.269 -3.755,-2.01c-0.203,-1.38 -1.098,-2.194 -2.523,-2.296c-2.777,-0.199 -3.445,1.48 -2.248,5.653c1.124,3.919 0.367,4.873 -3.294,4.154c-2.033,-0.398 -2.75,-1.131 -2.75,-2.806c0,-1.426 -0.742,-2.461 -2,-2.79c-1.197,-0.313 -2,-1.364 -2,-2.616c0,-1.152 -0.48,-2.094 -1.067,-2.094c-0.613,0 -0.797,-0.853 -0.433,-2c0.45,-1.419 0.18,-2 -0.933,-2c-0.862,0 -1.567,-0.45 -1.567,-1c0,-0.55 -0.873,-1 -1.941,-1c-1.068,0 -2.219,-0.45 -2.559,-1c-0.34,-0.55 -2.076,-1 -3.859,-1c-1.783,0 -3.69,-0.45 -4.241,-1c-1.341,-1.341 -6.2203,0.934 -6.9693,3.25c-0.694,2.146 -2.019,2.265 -2.792,0.251c-0.5831,-1.518 -3.0987,-1.592 -5.3955,-0.159c-0.7689,0.48 -1.4904,0.178 -1.8575,-0.779c-0.3299,-0.858 -1.1664,-1.563 -1.8593,-1.563c-0.693,0 -3.3494,-2.331 -5.9024,-5.179c-4.4359,-4.95 -4.7056,-5.094 -6.1006,-3.25c-1.288,1.702 -1.4632,1.729 -1.4912,0.229c-0.0179,-0.935 0.7549,-2.199 1.7178,-2.808c1.3829,-0.876 1.4609,-1.227 0.375,-1.675c-0.756,-0.312 -2.331,-1.523 -3.5,-2.692c-1.169,-1.169 -2.575,-2.186 -3.125,-2.26c-0.55,-0.074 -1.5819,-0.186 -2.2939,-0.25c-0.711,-0.063 -1.2209,-0.677 -1.1309,-1.365c0.709,-5.462 -0.1332,-7.812 -3.0059,-8.386c-1.612,-0.323 -3.7841,-1.381 -4.8271,-2.353c-1.042,-0.971 -2.8744,-2.077 -4.0693,-2.456c-2.3558,-0.748 -2.7478,-2.612 -1.17,-5.56c0.67,-1.252 0.67,-2.079 0,-2.493c-0.5519,-0.341 -1.0029,-1.52 -1.0029,-2.62c0,-1.1 -0.3989,-1.754 -0.8857,-1.452c-0.488,0.301 -1.1212,-0.347 -1.4073,-1.441c-0.2859,-1.094 -1.0417,-1.989 -1.6806,-1.989c-0.766,0 -0.8986,0.766 -0.3907,2.25c1.574,4.593 1.0443,8.281 -1.1357,7.905c-2.823,-0.487 -2.8151,-0.458 -1.5771,-6.234c0.9059,-4.224 0.8563,-5.522 -0.2667,-6.819c-0.7619,-0.882 -1.661,-3.401 -1.998,-5.599c-0.337,-2.198 -1.2978,-4.498 -2.1348,-5.11c-2.2839,-1.67 -1.8414,-3.275 1.1075,-4.015c1.895,-0.476 2.8878,-0.201 3.5498,0.981c2.832,5.06 8.7815,-1.963 7.1025,-8.384c-0.3459,-1.323 -0.0178,-1.975 0.9932,-1.975c2.4657,0 3.067,-3.997 1.2461,-8.276c-0.574,-1.349 -1.0769,-1.509 -2.0918,-0.667c-1.4531,1.206 -5.4307,0.383 -5.4307,-1.124c-0.0006,-0.513 -1.1253,-0.933 -2.5,-0.933c-2.8849,0 -3.1782,-1.587 -0.8965,-4.845c0.9029,-1.289 1.3939,-3.387 1.1231,-4.801c-0.543,-2.84 1.9263,-4.534 3.3203,-2.278c1.092,1.766 2.4608,-1.31 1.5908,-3.576c-0.6361,-1.658 -4.6377,-2.09 -4.6377,-0.5c0,0.55 -0.675,1 -1.5,1c-1.681,0 -2.045,-2.545 -0.5,-3.5c1.4989,-0.926 1.204,-2.5 -0.4688,-2.5c-2.3739,0 -0.6472,-2.745 2.0528,-3.261c2.1399,-0.409 2.4156,-0.138 2.1826,2.146c-0.233,2.286 0.1424,2.654 2.9834,2.928c2.0746,0.2 3.2495,-0.131 3.25,-0.916c0,-0.677 -0.2962,-0.934 -0.6582,-0.572c-1.113,1.113 -3.3417,-1.441 -3.3418,-3.831c0,-2.444 -3.9061,-4.264 -5.0791,-2.366c-0.358,0.578 -0.4691,-1.509 -0.2461,-4.638c0.421,-5.944 -0.6359,-8.478 -3.5469,-8.505c-2.4939,-0.024 -4.8418,-1.838 -3.54,-2.735c0.9969,-0.688 2.6487,-5.249 1.9004,-5.25c-1.7049,0 -3.8437,1.747 -4.7578,3.886c-1.116,2.614 -1.1163,2.614 -1.4893,-0.136c-0.465,-3.42 -1.7041,-3.479 -4.5391,-0.215c-2.0559,2.367 -2.3475,2.432 -4.3945,0.984c-2.6963,-1.91 -1.4225,-7.519 1.7061,-7.519c1.0007,0 1.9775,-0.476 2.1718,-1.057c0.513,-1.54 3.814,0.001 3.8145,1.781c0,1.077 0.644,1.337 2.25,0.906c1.237,-0.331 2.7911,-0.609 3.4531,-0.616c3.217,-0.038 6.3388,-14.833 3.3408,-15.833c-0.5739,-0.191 -1.0438,-1.007 -1.0439,-1.812c0,-0.806 -1.0748,-2.461 -2.3887,-3.6776c-2.428,-2.251 -2.858,-6.844 -0.8301,-8.8721c1.563,-1.5629 6.2183,0.1735 6.2188,2.3203c0,2.6761 2.1064,3.2074 5.5664,1.4024c3.7718,-1.9668 6.415,-1.9502 7.8779,0.0508c1.052,1.438 1.5379,1.3835 5.0088,-0.5655c3.455,-1.941 3.998,-2.004 5.378,-0.624c1.7146,1.7141 -0.7035,5.5967 -3.4864,5.5967c-0.7398,0.0001 -1.3447,0.4501 -1.3447,1c0,0.55 0.4823,1 1.0713,1c0.59,0 1.7464,0.675 2.5713,1.5c0.825,0.825 2.3687,1.5 3.4287,1.5c1.3638,0 1.9287,0.696 1.9287,2.378c0,1.307 0.675,2.937 1.5,3.622c2.112,1.753 1.864,4.092 -0.5,4.71c-1.1,0.288 -2,0.879 -2,1.315c-0.0012,0.436 -2.0248,2.071 -4.498,3.633c-3.8239,2.416 -4.499,3.329 -4.5,6.092c-0.002,3.157 1.244,4.279 2.498,2.25c0.87,-1.408 2.4978,-1.245 2.5078,0.25c0.019,3.106 4.6289,3.542 7.8369,0.742c3.748,-3.273 5.8919,-7.992 3.6299,-7.992c-1.4556,0 -2.0294,-2.112 -0.8848,-3.257c0.325,-0.325 2.4071,0.05 4.626,0.833c5.5389,1.955 5.7516,1.877 5.2647,-1.922c-0.236,-1.841 0.0023,-4.851 0.5293,-6.689c0.7619,-2.657 0.6214,-3.715 -0.6856,-5.16c-0.9048,-0.999 -1.384,-2.078 -1.0664,-2.397c0.319,-0.319 1.0823,0.359 1.6963,1.506c1.396,2.608 5.3666,2.885 4.8096,0.336c-0.211,-0.963 -0.9184,-1.638 -1.5723,-1.5c-0.655,0.137 -1.1914,-0.388 -1.1914,-1.168c0,-0.78 -0.2734,-2.13 -0.6074,-3c-0.353,-0.9209 -0.0854,-1.582 0.6406,-1.582c0.685,-0.0002 1.8642,-0.7871 2.6191,-1.75c1.2639,-1.6108 1.7496,-1.3387 6.1094,3.4131c3.501,3.8149 5.4413,5.1539 7.4293,5.1249c3.061,-0.043 4.666,-2.729 2.391,-4.0019c-0.824,-0.461 -1.244,-1.5025 -0.933,-2.3125c0.737,-1.9225 -0.543,-1.879 -2.721,0.0918c-1.1469,1.0376 -1.951,1.2056 -2.388,0.5c-0.3619,-0.5859 -0.1871,-1.0652 0.3897,-1.0654c0.576,0 1.0232,-1.012 0.9932,-2.25c-0.029,-1.2378 0.0881,-3.1006 0.2621,-4.1396c0.207,-1.242 -0.6972,-2.4617 -2.6362,-3.5557c-3.9248,-2.2132 -6.3425,-10.6405 -4.3467,-15.1494c1.463,-3.304 2.0439,-3.5193 3.7979,-1.4053c0.685,0.825 2.3151,1.5 3.622,1.5c1.965,0 2.378,0.5114 2.378,2.9414c0,1.6178 0.486,3.2414 1.081,3.6084c0.595,0.368 0.811,1.7446 0.481,3.0596c-0.475,1.8936 -0.205,2.3906 1.304,2.3906c1.047,0.0002 2.641,1.1251 3.542,2.5c0.901,1.3749 2.311,2.5 3.134,2.5c1.096,0 1.328,0.668 0.869,2.5c-0.353,1.407 -0.195,2.5 0.363,2.5c0.546,0.0009 2.856,1.8642 5.133,4.1416c3.706,3.7074 7.06,4.9344 4.259,1.5586c-1.156,-1.3929 0.177,-3.6999 2.14,-3.7002c0.779,0 2.795,-1.4428 8.402,-6.0146c1.653,-1.348 2.542,-1.2362 2.045,0.2568c-0.749,2.2469 3.511,3.5561 5.525,1.6982c0.977,-0.902 3.602,-2.1874 5.832,-2.8554c2.792,-0.836 3.887,-1.6512 3.516,-2.6182c-0.296,-0.771 -0.108,-1.6692 0.418,-1.9941c1.677,-1.0371 1.027,-3.6417 -1.044,-4.1827c-2.755,-0.721 -2.739,-5.2838 0.021,-6.0058c1.641,-0.429 1.794,-0.8025 0.814,-1.9824c-1.467,-1.7679 0.356,-3.2631 4.009,-3.2872c1.494,-0.009 2.533,-0.7386 2.866,-2.0146c1.001,-3.827 6.384,-2.7178 5.609,1.1562c-0.624,3.1199 -0.593,3.1491 2.661,2.4981c3.292,-0.6579 3.292,-0.658 2.687,3.7568c-0.638,4.6569 2.721,7.5289 6.921,5.917c1.009,-0.387 1.721,0.139 2.088,1.542c0.579,2.215 2.324,2.9708 2.324,1.0078c0,-0.7909 0.431,-0.765 1.456,0.086c2.236,1.855 3.22,0.547 3.294,-4.378c0.081,-5.3529 -1.149,-6.6216 -6.963,-7.1806c-2.358,-0.227 -4.429,-0.8365 -4.602,-1.3535c-0.174,-0.5168 -0.961,-0.6916 -1.75,-0.3887c-0.789,0.3027 -1.435,0.0256 -1.435,-0.6152c0,-0.6408 -0.419,-0.9066 -0.931,-0.5909c-2.132,1.318 -2.232,-1.907 -0.112,-3.623c1.464,-1.186 2.093,-2.536 1.764,-3.791c-0.744,-2.846 1.237,-4.8749 5.779,-5.9209c2.2,-0.507 4.337,-0.9665 4.75,-1.0225zm40.75,257.9004c1.868,-1.154 2.711,-0.311 1.2,1.2c-0.642,0.642 -1.499,0.835 -1.904,0.429c-0.406,-0.406 -0.089,-1.139 0.704,-1.629zm50,-2c0.55,0 1,0.675 1,1.5c0,0.825 -0.45,1.5 -1,1.5c-0.55,0 -1,-0.675 -1,-1.5c0,-0.825 0.45,-1.5 1,-1.5zm-66,-2c0.55,0 1,0.45 1,1c0,0.55 -0.45,1 -1,1c-0.55,0 -1,-0.45 -1,-1c0,-0.55 0.45,-1 1,-1zm-44.08,-1.15c-0.986,-1.843 -0.866,-1.97 1.244,-1.32c3.062,0.942 3.192,1.1 2.467,2.99c-0.718,1.871 -2.165,1.22 -3.711,-1.67zm69.071,0.661c1.249,-1.505 3.009,-1.184 3.009,0.548c0,0.518 -0.955,0.941 -2.122,0.941c-1.767,0 -1.916,-0.25 -0.887,-1.489zm-146.991,0.489c0.733,0 1.033,0.3 0.667,0.667c-0.367,0.366 -0.967,0.366 -1.334,0c-0.366,-0.367 -0.066,-0.667 0.667,-0.667zm181,-3c0.55,0 1,0.45 1,1c0,0.55 -0.45,1 -1,1c-0.55,0 -1,-0.45 -1,-1c0,-0.55 0.45,-1 1,-1zm-38,1c0.733,0 1.033,0.3 0.667,0.667c-0.367,0.366 -0.967,0.366 -1.334,0c-0.366,-0.367 -0.066,-0.667 0.667,-0.667zm10,-3c1.111,0 2,0.667 2,1.5c0,0.833 -0.889,1.5 -2,1.5c-1.111,0 -2,-0.667 -2,-1.5c0,-0.833 0.889,-1.5 2,-1.5zm-7.5,1c0.275,0 0.5,0.225 0.5,0.5c0,0.275 -0.225,0.5 -0.5,0.5c-0.275,0 -0.5,-0.225 -0.5,-0.5c0,-0.275 0.225,-0.5 0.5,-0.5zm40.5,-1c0,-0.733 0.3,-1.033 0.667,-0.667c0.366,0.367 0.366,0.967 0,1.334c-0.367,0.366 -0.667,0.066 -0.667,-0.667zm-74.5,-2c-0.275,0 -0.5,0.225 -0.5,0.5c0,0.275 0.225,0.5 0.5,0.5c0.275,0 0.5,-0.225 0.5,-0.5c0,-0.275 -0.225,-0.5 -0.5,-0.5zm-75.971,-7.446c2.578,-1.949 3.236,-1.915 3.82,0.196c0.894,3.231 0.012,6.596 -1.926,7.356c-2.982,1.169 -3.686,1.022 -3.051,-0.634c0.333,-0.866 -0.27,-2.26 -1.393,-3.222c-2.234,-1.913 -2.63,-3.437 -0.7,-2.697c0.703,0.27 2.165,-0.179 3.25,-0.999zm118.471,5.446c0.55,0 1,0.45 1,1c0,0.55 -0.45,1 -1,1c-0.55,0 -1,-0.45 -1,-1c0,-0.55 0.45,-1 1,-1zm-86.473,-3.252c0.917,-3.653 -1.267,-3.642 -4.253,0.021c-2.227,2.731 -2.227,2.731 0.341,3.056c3.061,0.388 3.038,0.406 3.912,-3.077zm101.473,2.252c0.733,0 1.033,0.3 0.667,0.667c-0.367,0.366 -0.967,0.366 -1.334,0c-0.366,-0.367 -0.066,-0.667 0.667,-0.667zm-96.229,-1.187c-0.618,-1.855 -2.771,-2.162 -2.771,-0.396c0,0.871 0.713,1.583 1.583,1.583c0.871,0 1.406,-0.534 1.188,-1.187zm-22.591,-1.563c-0.351,-2.473 1.624,-3.046 3.62,-1.05c1.996,1.996 1.423,3.971 -1.05,3.62c-1.446,-0.206 -2.364,-1.124 -2.57,-2.57zm-3.18,-2.25c0.733,0 1.033,0.3 0.667,0.667c-0.367,0.366 -0.967,0.366 -1.334,0c-0.366,-0.367 -0.066,-0.667 0.667,-0.667zm46.722,-2.989c2.378,-2.776 3.469,-2.516 3.094,0.739c-0.226,1.969 -0.955,2.841 -2.566,3.07c-2.687,0.381 -2.886,-1.054 -0.528,-3.809zm-39.722,-1.011c0.55,0 1,0.45 1,1c0,0.55 -0.45,1 -1,1c-0.55,0 -1,-0.45 -1,-1c0,-0.55 0.45,-1 1,-1zm71,0c0.55,0 1,0.45 1,1c0,0.55 -0.45,1 -1,1c-0.55,0 -1,-0.45 -1,-1c0,-0.55 0.45,-1 1,-1zm-75.867,-1.379c2.54,-2.871 4.029,-1.007 1.893,2.371c-0.714,1.13 -1.223,1.211 -2.101,0.333c-0.878,-0.878 -0.828,-1.533 0.208,-2.704zm-25.195,-27.304c1.015,-0.768 1.909,-0.841 2.554,-0.208c0.654,0.643 0.574,1.232 -0.235,1.732c-4.059,2.509 -2.581,6.833 3.145,9.207c3.079,1.276 5.598,2.864 5.598,3.529c0,0.665 0.739,1.493 1.643,1.84c0.904,0.346 1.392,0.881 1.086,1.188c-0.306,0.306 -1.539,0.032 -2.738,-0.61c-1.836,-0.982 -2.553,-0.816 -4.546,1.057c-1.881,1.767 -3.108,2.102 -5.987,1.636c-2.888,-0.469 -3.403,-0.327 -2.548,0.704c0.59,0.71 0.787,1.577 0.439,1.926c-0.349,0.349 -0.045,1.343 0.673,2.208c1.09,1.314 1.02,1.855 -0.419,3.274c-1.624,1.6 -1.802,1.597 -3.024,-0.05c-0.715,-0.962 -1.761,-1.75 -2.326,-1.75c-1.5939,0 -2.0277,-5.587 -0.586,-7.559c0.709,-0.97 1.026,-2.817 0.703,-4.103c-0.43,-1.713 -0.164,-2.338 0.996,-2.338c1.889,0 5.072,-5.61 3.674,-6.475c-1.207,-0.746 -0.145,-3.661 1.898,-5.208zm132.062,23.254c0,-0.843 -1.27,-0.644 -3.25,0.509c-1.936,1.128 -2.353,2.92 -0.679,2.92c1.125,0 3.928,-2.447 3.929,-3.429zm-114.5,1.429c0.275,0 0.5,0.225 0.5,0.5c0,0.275 -0.225,0.5 -0.5,0.5c-0.275,0 -0.5,-0.225 -0.5,-0.5c0,-0.275 0.225,-0.5 0.5,-0.5zm58.5,-1c0.55,0 1,0.45 1,1c0,0.55 -0.45,1 -1,1c-0.55,0 -1,-0.45 -1,-1c0,-0.55 0.45,-1 1,-1zm-46.878,-6.722c0.904,-0.904 3.878,-0.77 3.878,0.175c0,1.156 -3.354,6.547 -4.073,6.547c-1.311,-0.001 -1.155,-5.372 0.195,-6.722zm-50.8857,-8.278c8.3568,0 11.7647,7.042 5.7188,11.817c-4.209,3.325 -7.986,2.647 -10.126,-1.817c-1.627,-3.395 -1.6119,-3.553 0.4971,-5.263c2.14,-1.735 2.1434,-1.785 0.2324,-3.25c-1.7889,-1.37 -1.4982,-1.487 3.6777,-1.487zm140.4287,6c-1.584,0 -1.698,0.256 -0.665,1.5c1.04,1.253 0.896,1.5 -0.878,1.5c-1.167,0 -2.122,0.498 -2.122,1.107c0,0.609 0.712,0.834 1.582,0.5c0.87,-0.334 2.191,-0.607 2.938,-0.607c0.745,0 1.288,-0.9 1.205,-2c-0.094,-1.249 -0.867,-2 -2.06,-2zm-76.165,1c0.275,0 0.5,0.225 0.5,0.5c0,0.275 -0.225,0.5 -0.5,0.5c-0.275,0 -0.5,-0.225 -0.5,-0.5c0,-0.275 0.225,-0.5 0.5,-0.5zm95.5,-6c-1.336,0 -2,0.667 -2,2.008c0,1.759 0.249,1.853 2,0.76c1.1,-0.687 2,-1.591 2,-2.009c0,-0.417 -0.9,-0.759 -2,-0.759zm-41.654,-0.786c-0.538,-2.057 -2.318,-2.908 -3.536,-1.69c-0.689,0.69 0.239,5.48 1.057,5.461c1.839,-0.045 2.994,-1.801 2.479,-3.771zm5.654,0.786c-0.55,0 -1,0.45 -1,1c0,0.55 0.45,1 1,1c0.55,0 1,-0.45 1,-1c0,-0.55 -0.45,-1 -1,-1zm30.25,0.015c-1.238,-0.008 -2.25,0.435 -2.25,0.985c0,1.253 1.061,1.253 3,0c1.213,-0.784 1.069,-0.972 -0.75,-0.985zm10.25,-1.015c-0.825,0 -1.5,0.45 -1.5,1c0,0.55 0.675,1 1.5,1c0.825,0 1.5,-0.45 1.5,-1c0,-0.55 -0.675,-1 -1.5,-1zm-226.8066,-6c1.7088,0 3.0751,2.168 2.5742,4.084c-0.581,2.221 -2.2676,2.591 -2.2676,0.498c0,-0.78 -0.2734,-2.13 -0.6074,-3c-0.334,-0.87 -0.1982,-1.582 0.3008,-1.582zm75.4921,0.055c4.5725,-1.834 6.5685,0.628 3.9105,4.823c-1.035,1.635 -3.096,0.64 -3.096,-1.496c-0.0001,-0.825 -0.4188,-1.241 -0.9307,-0.925c-0.512,0.317 -1.2164,0.114 -1.5644,-0.449c-0.3477,-0.564 0.408,-1.443 1.6806,-1.953zm-91.6855,1.945c0.825,0 1.5,0.675 1.5,1.5c0,0.825 -0.675,1.5 -1.5,1.5c-0.825,0 -1.5,-0.675 -1.5,-1.5c0,-0.825 0.675,-1.5 1.5,-1.5zm199.878,-1c-0.208,0 -0.378,0.675 -0.378,1.5c0,0.825 0.73,1.5 1.622,1.5c1.329,0 1.398,-0.271 0.378,-1.5c-0.685,-0.825 -1.415,-1.5 -1.622,-1.5zm-89.878,1c0.275,0 0.5,0.225 0.5,0.5c0,0.275 -0.225,0.5 -0.5,0.5c-0.275,0 -0.5,-0.225 -0.5,-0.5c0,-0.275 0.225,-0.5 0.5,-0.5zm118.5,-49.8c0,-1.645 -1.551,-1.506 -3.357,0.3c-0.825,0.825 -2.181,1.5 -3.013,1.5c-0.831,0 -1.79,0.45 -2.13,1c-0.34,0.55 -0.141,1 0.441,1c0.582,0 1.059,0.45 1.059,1c0,0.55 -0.675,1 -1.5,1c-1.99,0 -1.942,3.893 0.057,4.66c0.857,0.329 1.308,1.248 1.003,2.043c-0.983,2.562 2.273,4.908 3.839,2.766c0.72,-0.985 1.818,-1.453 2.467,-1.052c0.838,0.518 0.578,1.555 -0.916,3.653c-2.254,3.165 -5.223,3.969 -4.744,1.284c0.545,-3.054 -1.816,-2.421 -3.267,0.876c-1.02,2.317 -2.313,3.454 -4.439,3.902c-1.65,0.347 -2.239,0.685 -1.309,0.75c2.862,0.2 3.228,2.293 0.731,4.177c-2.732,2.06 -4.262,1.587 -3.422,-1.059c0.32,-1.007 0.145,-2.1 -0.387,-2.43c-0.533,-0.33 -1.257,0.307 -1.608,1.415c-0.352,1.108 -1.092,2.015 -1.644,2.015c-0.552,0 -1.683,0.679 -2.513,1.509c-0.83,0.83 -1.949,1.238 -2.485,0.906c-5.712,-3.53 -6.163,5.706 -0.481,9.844c2.912,2.122 3.042,1.988 1.643,-1.694c-0.634,-1.667 -0.634,-2.565 0,-2.565c0.536,0 0.975,-0.9 0.975,-2c0,-2.18 0.737,-2.452 2.911,-1.076c0.868,0.549 2.108,0.457 3.225,-0.241c2.548,-1.591 4.456,0.342 3.008,3.048c-0.573,1.07 -0.815,2.808 -0.54,3.862c0.292,1.118 -0.355,2.836 -1.551,4.12c-2.4,2.576 -2.641,3.727 -0.618,2.95c0.79,-0.303 1.577,-0.137 1.75,0.368c0.173,0.505 1.322,0.653 2.554,0.33c1.231,-0.324 1.998,-0.978 1.704,-1.454c-1.182,-1.912 3.364,-7.907 5.995,-7.907c1.324,0 1.379,-0.321 0.34,-1.984c-1.029,-1.648 -0.946,-2.277 0.492,-3.714c1.639,-1.641 1.73,-1.614 1.73,0.507c0,2.156 0.09,2.178 2.5,0.599c3.616,-2.37 3.326,-5.298 -0.514,-5.189c-3.571,0.102 -3.86,-0.119 -4.214,-3.214c-0.241,-2.099 0.158,-2.389 3.478,-2.527c2.834,-0.118 3.75,0.234 3.75,1.442c0,0.88 0.9,2.161 2,2.848c1.1,0.687 2,1.958 2,2.824c0,0.904 0.532,1.326 1.25,0.992c0.688,-0.321 2.038,-0.86 3,-1.2c2.52,-0.889 2.289,-3.758 -0.249,-3.095c-3.437,0.899 -5.199,-7.46 -2.086,-9.896c1.603,-1.256 2.336,-11.392 0.824,-11.393c-0.524,0 -0.694,-0.675 -0.377,-1.5c0.343,-0.894 0.009,-1.5 -0.826,-1.5c-0.771,0 -1.687,-0.9 -2.036,-2c-0.728,-2.294 -1.596,-2.504 -3.3,-0.8c-0.933,0.933 -1.2,0.933 -1.2,0zm-111.5,46.8c-0.275,0 -0.5,0.225 -0.5,0.5c0,0.275 0.225,0.5 0.5,0.5c0.275,0 0.5,-0.225 0.5,-0.5c0,-0.275 -0.225,-0.5 -0.5,-0.5zm-97.8926,-4.419c0.681,-1.774 1.3108,-1.92 3.1817,-0.733c0.986,0.626 1.0359,1.483 0.2109,3.652c-1.067,2.807 -1.0921,2.814 -2.5391,0.748c-0.803,-1.147 -1.1875,-2.797 -0.8535,-3.667zm231.8926,2.419c0.484,-0.783 1.059,-0.841 1.726,-0.174c0.55,0.55 0.673,1.528 0.274,2.174c-0.484,0.783 -1.059,0.841 -1.726,0.174c-0.55,-0.55 -0.673,-1.528 -0.274,-2.174zm-243,0c0.275,0 0.5,0.225 0.5,0.5c0,0.275 -0.225,0.5 -0.5,0.5c-0.275,0 -0.5,-0.225 -0.5,-0.5c0,-0.275 0.225,-0.5 0.5,-0.5zm118.083,-3c-0.87,0 -1.583,0.712 -1.583,1.583c0,1.766 2.153,1.459 2.771,-0.395c0.218,-0.654 -0.317,-1.188 -1.188,-1.188zm46.417,-0.122c0,-1.036 -1.384,-1.161 -2.333,-0.211c-1.498,1.497 -0.735,3.634 0.833,2.333c0.825,-0.685 1.5,-1.64 1.5,-2.122zm-48.091,-8.656c-3.076,0.087 -3.513,0.535 -4.1,4.206c-0.404,2.52 -5.278,3.917 -6.89,1.974c-1.591,-1.917 -2.592,-1.759 -3.184,0.502c-0.419,1.603 0.222,2.012 4.04,2.585c5.7,0.855 12.513,-1.921 11.635,-4.739c-0.299,-0.962 -0.064,-1.75 0.523,-1.75c0.587,0 1.067,-0.645 1.067,-1.433c0,-0.954 -1.033,-1.404 -3.091,-1.345zm-16.85,4.778c-1.18,0 -2.442,1.95 -1.726,2.667c0.717,0.716 2.667,-0.546 2.667,-1.726c0,-0.518 -0.423,-0.941 -0.941,-0.941zm14.441,1c0.275,0 0.5,0.225 0.5,0.5c0,0.275 -0.225,0.5 -0.5,0.5c-0.275,0 -0.5,-0.225 -0.5,-0.5c0,-0.275 0.225,-0.5 0.5,-0.5zm-38.5488,-7.559c-1.386,-1.67 -3.5592,-1.885 -4.4512,-0.441c-0.34,0.55 0.0844,1 0.9414,1c1.9876,0 2.0275,1.606 0.0586,2.362c-1.6369,0.628 -1.9176,2.432 -0.6807,4.38c0.606,0.954 1.6949,0.78 4.6963,-0.75c2.149,-1.096 4.5242,-1.992 5.2793,-1.992c2.447,0 0.6311,-2.49 -2.0488,-2.809c-1.4298,-0.171 -3.1377,-0.958 -3.7949,-1.75zm132.7968,2.097c0.412,-2.154 0.653,-2.28 1.925,-1.008c1.582,1.582 0.987,3.47 -1.093,3.47c-0.845,0 -1.137,-0.865 -0.832,-2.462zm32.502,-8.438c-3.241,0.086 -3.411,0.197 -1.25,0.816c1.498,0.429 2.393,1.344 2.234,2.28c-0.151,0.892 0.654,1.803 1.88,2.124c1.4,0.366 1.945,1.085 1.567,2.069c-0.628,1.635 2.558,3.2 4.31,2.117c2.256,-1.395 -0.994,-7.506 -3.991,-7.506c-0.55,0 -1,-0.45 -1,-1c0,-0.55 -1.687,-0.955 -3.75,-0.9zm-49.25,7.9c0.55,0 1,0.198 1,0.441c0,0.244 -0.45,0.719 -1,1.059c-0.55,0.34 -1,0.141 -1,-0.441c0,-0.582 0.45,-1.059 1,-1.059zm-127,-4.5c0,-3.59 -2.0089,-1.298 -3.0469,3.475c-0.057,0.261 0.3808,0.636 0.9727,0.834c0.617,0.205 0.8158,-0.317 0.4678,-1.225c-0.3349,-0.871 -0.1097,-1.584 0.499,-1.584c0.609,0 1.1074,-0.675 1.1074,-1.5zm21.5,2.5c-0.275,0 -0.5,0.225 -0.5,0.5c0,0.275 0.225,0.5 0.5,0.5c0.275,0 0.5,-0.225 0.5,-0.5c0,-0.275 -0.225,-0.5 -0.5,-0.5zm214.5,-2c0.55,0 1,0.675 1,1.5c0,0.825 -0.45,1.5 -1,1.5c-0.55,0 -1,-0.675 -1,-1.5c0,-0.825 0.45,-1.5 1,-1.5zm-90.059,-2c0.518,0 1.219,0.45 1.559,1c0.34,0.55 -0.084,1 -0.941,1c-0.857,0 -1.559,-0.45 -1.559,-1c0,-0.55 0.423,-1 0.941,-1zm-138.8336,-3c-2.0829,0 -3.5885,2.585 -2.0566,3.532c0.9079,0.56 3.9487,-1.72 3.9492,-2.961c0,-0.314 -0.8518,-0.571 -1.8926,-0.571zm-52.6074,1c0.825,0 1.5,0.45 1.5,1c0,0.55 -0.675,1 -1.5,1c-0.825,0 -1.5,-0.45 -1.5,-1c0,-0.55 0.675,-1 1.5,-1zm238.25,-1.37c-3.277,-0.878 -4.75,-0.763 -4.75,0.37c0,0.516 0.989,0.944 2.245,0.995l0.51,0.01c1.256,0.051 2.245,0.479 2.245,0.995c0,0.55 0.45,1 1,1c1.98,0 0.949,-2.78 -1.25,-3.37zm-190.7646,-0.88c0.0209,-1.024 -1.1845,-0.917 -2.9854,0.265c-1.318,0.866 -1.3212,1.1 -0.0264,1.932c1.404,0.903 2.9718,-0.241 3.0118,-2.197zm180.0146,0.25c-0.55,0 -1,0.45 -1,1c0,0.55 0.45,1 1,1c0.55,0 1,-0.45 1,-1c0,-0.55 -0.45,-1 -1,-1zm49,0c-0.55,0 -1,0.45 -1,1c0,0.55 0.45,1 1,1c0.55,0 1,-0.45 1,-1c0,-0.55 -0.45,-1 -1,-1zm-261.6074,-2c1.696,0 2.8945,2.704 1.5635,3.527c-1.3159,0.814 -2.9559,-0.343 -2.9561,-2.086c0,-0.792 0.6268,-1.441 1.3926,-1.441zm162.1074,-0.362c-0.914,-0.35 -1.5,-0.001 -1.5,0.893c0,0.808 0.675,1.469 1.5,1.469c0.825,0 1.5,-0.402 1.5,-0.893c0,-0.491 -0.675,-1.152 -1.5,-1.469zm84,0.362c-0.275,0 -0.5,0.225 -0.5,0.5c0,0.275 0.225,0.5 0.5,0.5c0.275,0 0.5,-0.225 0.5,-0.5c0,-0.275 -0.225,-0.5 -0.5,-0.5zm-99.364,-4.264c-0.761,-0.761 -1.25,-0.602 -1.692,0.549c-0.94,2.45 0.604,4.38 1.798,2.247c0.639,-1.142 0.603,-2.087 -0.106,-2.796zm27.835,-6.038c-1.801,-1.57 -7.181,-1.488 -8.804,0.135c-0.986,0.986 -2.325,1.614 -2.979,1.396c-1.927,-0.642 -1.365,3.665 0.777,5.964c1.686,1.81 2.198,1.917 3.597,0.755c1.499,-1.243 1.481,-1.42 -0.215,-2.166c-1.33,-0.585 -1.1,-0.669 0.824,-0.298c3.603,0.694 6.088,-0.366 5.353,-2.283c-0.326,-0.848 -0.027,-1.89 0.664,-2.317c0.689,-0.426 1.042,-0.96 0.783,-1.186zm-154.971,6.302c-0.55,0 -1,0.45 -1,1c0,0.55 0.45,1 1,1c0.55,0 1,-0.45 1,-1c0,-0.55 -0.45,-1 -1,-1zm171.5,-4c0.275,0 0.5,0.225 0.5,0.5c0,0.275 -0.225,0.5 -0.5,0.5c-0.275,0 -0.5,-0.225 -0.5,-0.5c0,-0.275 0.225,-0.5 0.5,-0.5zm-44.393,-3c-1.014,0 -2.395,3.046 -1.697,3.743c0.795,0.795 2.59,-0.801 2.59,-2.302c0,-0.792 -0.402,-1.441 -0.893,-1.441zm58.893,2c-0.733,0 -1.033,0.3 -0.667,0.667c0.367,0.366 0.967,0.366 1.334,0c0.366,-0.367 0.066,-0.667 -0.667,-0.667zm-31.705,-9.25c-0.621,-3.236 -3.688,-3.753 -5.224,-0.882c-0.55,1.027 -2.366,2.141 -4.035,2.475c-2.182,0.436 -3.036,1.177 -3.036,2.632c0,1.181 -0.66,2.025 -1.583,2.025c-0.871,0 -1.406,0.534 -1.188,1.188c0.719,2.152 2.405,1.906 5.048,-0.738c1.642,-1.642 3.935,-2.712 6.195,-2.891c4.411,-0.35 4.475,-0.415 3.823,-3.809zm-17.628,6.583c-0.367,-0.366 -0.667,-0.066 -0.667,0.667c0,0.733 0.3,1.033 0.667,0.667c0.366,-0.367 0.366,-0.967 0,-1.334zm31.833,-0.333c0.275,0 0.5,0.225 0.5,0.5c0,0.275 -0.225,0.5 -0.5,0.5c-0.275,0 -0.5,-0.225 -0.5,-0.5c0,-0.275 0.225,-0.5 0.5,-0.5zm-8.9,-1.162c0.348,-0.563 1.089,-0.511 1.862,0.131c0.707,0.586 2.017,0.785 2.911,0.441c0.899,-0.345 1.627,-0.128 1.627,0.483c0,1.234 -1.398,1.375 -4.739,0.48c-1.231,-0.33 -1.979,-1.021 -1.661,-1.535zm6.9,-4.838c0.275,0 0.5,0.225 0.5,0.5c0,0.275 -0.225,0.5 -0.5,0.5c-0.275,0 -0.5,-0.225 -0.5,-0.5c0,-0.275 0.225,-0.5 0.5,-0.5zm-175.0049,-11.648c-2.6249,-4.006 -5.5044,-2.115 -5.4805,3.598c0.0201,4.605 0.7758,5.504 4.8448,5.768c1.8479,0.12 3.986,0.738 4.75,1.373c1.0559,0.876 1.7516,0.854 2.8906,-0.091c2.457,-2.039 1.7206,-4.426 -1.9824,-6.42c-1.915,-1.031 -4.1745,-2.935 -5.0225,-4.228zm153.0049,7.648c-0.825,0 -1.5,0.436 -1.5,0.969c0,0.532 0.675,0.709 1.5,0.393c0.825,-0.317 1.5,-0.753 1.5,-0.969c-0.001,-0.216 -0.676,-0.393 -1.5,-0.393zm14.441,-1c-1.068,0 -1.941,0.45 -1.941,1c0,0.55 1.152,1 2.559,1c1.451,0 2.292,-0.433 1.941,-1c-0.34,-0.55 -1.491,-1 -2.559,-1zm-17.326,-8c-1.939,0 -2.403,0.388 -1.932,1.615c0.493,1.285 0.179,1.476 -1.532,0.933c-1.182,-0.376 -2.144,-0.315 -2.136,0.135c0.057,3.035 5.385,4.383 6.358,1.608c0.346,-0.985 0.89,-2.353 1.211,-3.041c0.385,-0.826 -0.284,-1.25 -1.969,-1.25zm-9.615,2c-0.55,0 -1,0.702 -1,1.559c0,0.857 0.45,1.281 1,0.941c0.55,-0.34 1,-1.041 1,-1.559c0,-0.518 -0.45,-0.941 -1,-0.941zm-154,-3c-0.55,0 -1,0.648 -1,1.441c0.0001,0.793 0.4501,1.719 1,2.059c0.55,0.34 1,-0.309 1,-1.441c-0.0001,-1.132 -0.4501,-2.059 -1,-2.059zm225.5,2c-0.275,0 -0.5,0.225 -0.5,0.5c0,0.275 0.225,0.5 0.5,0.5c0.275,0 0.5,-0.225 0.5,-0.5c0,-0.275 -0.225,-0.5 -0.5,-0.5zm33,-3c0.275,0 0.5,0.225 0.5,0.5c0,0.275 -0.225,0.5 -0.5,0.5c-0.275,0 -0.5,-0.225 -0.5,-0.5c0,-0.275 0.225,-0.5 0.5,-0.5zm9.845,-2.457c0.747,-1.947 2.655,-2.021 2.655,-0.102c0,1.593 -1.815,3.078 -2.69,2.202c-0.306,-0.307 -0.291,-1.251 0.035,-2.1zm-103.345,-0.543c-0.55,0 -1,0.45 -1,1c0,0.55 0.45,1 1,1c0.55,0 1,-0.45 1,-1c0,-0.55 -0.45,-1 -1,-1zm-194.9062,-5c0.4979,0 0.9062,0.9 0.9062,2c0,1.1 -0.1729,1.999 -0.3828,2c-0.211,0 -0.6192,-0.9 -0.9072,-2c-0.287,-1.1 -0.1151,-2 0.3838,-2zm262.1562,-4.917c-1.14,0.127 -4.485,4.015 -3.931,4.57c0.794,0.791 4.681,-2.026 4.681,-3.394c0,-0.692 -0.337,-1.222 -0.75,-1.176zm-257.833,2.996c1.054,-0.043 1.6435,0.193 1.3115,0.525c-0.3323,0.332 -1.1944,0.367 -1.915,0.079c-0.798,-0.319 -0.5615,-0.556 0.6035,-0.604zm39.25,-0.746c-0.367,-0.366 -0.667,-0.066 -0.667,0.667c0,0.733 0.3,1.033 0.667,0.667c0.366,-0.367 0.366,-0.967 0,-1.334zm-3.8096,-2.443c-1.861,-1.179 -3.8574,-1.106 -3.8574,0.141c0.0003,1.391 2.6256,2.318 4.0586,1.433c0.842,-0.521 0.7887,-0.946 -0.2012,-1.574zm-38.8926,-3.348c1.885,-2.271 3.2725,-1.875 2.4786,0.708c-0.935,3.042 -1.2862,3.307 -2.6172,1.976c-0.8549,-0.855 -0.8203,-1.528 0.1386,-2.684zm285.7002,-21.809c0.294,-0.475 1.378,-0.099 2.411,0.836c1.032,0.934 1.633,2.091 1.336,2.574c-1.096,1.772 0.737,4.678 3.368,5.338c3.815,0.957 5.361,2.499 4.675,4.66c-0.331,1.045 -0.107,1.859 0.513,1.859c0.792,0 0.802,0.562 0.032,2c-0.589,1.1 -1.738,2 -2.554,2c-1.084,0 -1.315,0.675 -0.857,2.5c0.642,2.557 -0.09,3.012 -3.031,1.884c-1.227,-0.471 -1.455,-1.415 -0.97,-4c0.349,-1.861 0.244,-3.383 -0.233,-3.384c-1.036,0 -3.349,-7.024 -3.37,-10.234c-0.009,-1.246 -0.429,-2.92 -0.934,-3.718c-0.506,-0.799 -0.679,-1.841 -0.386,-2.315zm-280.165,22.267c0.275,0 0.5,0.225 0.5,0.5c0,0.275 -0.225,0.5 -0.5,0.5c-0.275,0 -0.5,-0.225 -0.5,-0.5c0,-0.275 0.225,-0.5 0.5,-0.5zm257.5,-4.781c-3.049,-0.087 -4.259,2.084 -1.708,3.063c1.201,0.461 4.708,-1.394 4.708,-2.49c0,-0.268 -1.35,-0.526 -3,-0.573zm-257.75,0.277c1.765,-2.005 2.75,-1.824 2.75,0.504c0,1.333 -0.667,2 -2,2c-2.321,0 -2.482,-0.537 -0.75,-2.504zm23.1914,0.504c0.8568,0 1.5586,0.45 1.5586,1c0,0.55 -0.4234,1 -0.9414,1c-0.518,0 -1.2187,-0.45 -1.5586,-1c-0.34,-0.55 0.0844,-1 0.9414,-1zm234.5586,-6c-0.55,0 -1,0.45 -1,1c0,0.55 0.45,1 1,1c0.55,0 1,-0.45 1,-1c0,-0.55 -0.45,-1 -1,-1zm-229.5,-2c0.275,0 0.5,0.225 0.5,0.5c0,0.275 -0.225,0.5 -0.5,0.5c-0.275,0 -0.5,-0.225 -0.5,-0.5c0,-0.275 0.225,-0.5 0.5,-0.5zm-26,-1c0.275,0 0.5,0.225 0.5,0.5c0,0.275 -0.225,0.5 -0.5,0.5c-0.275,0 -0.5,-0.225 -0.5,-0.5c0,-0.275 0.225,-0.5 0.5,-0.5zm8.9414,-2c0.2431,0.001 0.7188,0.45 1.0586,1c0.34,0.55 0.1406,1 -0.4414,1c-0.5818,0 -1.0586,-0.45 -1.0586,-1c0,-0.55 0.1984,-1 0.4414,-1zm-6.5,-2c0.518,0 1.2187,0.45 1.5586,1c0.34,0.55 -0.0844,1 -0.9414,1c-0.8568,0 -1.5586,-0.45 -1.5586,-1c0,-0.55 0.4234,-1 0.9414,-1zm-18.9414,-2c0.55,0 1,0.45 1,1c0,0.55 -0.45,1 -1,1c-0.55,0 -1,-0.45 -1,-1c0,-0.55 0.45,-1 1,-1zm-0.5,-3c0.825,0 1.5,0.45 1.5,1c0,0.55 -0.675,1 -1.5,1c-0.825,0 -1.5,-0.45 -1.5,-1c0,-0.55 0.675,-1 1.5,-1zm304.5,0c0.55,0 1,0.45 1,1c0,0.55 -0.45,1 -1,1c-0.55,0 -1,-0.45 -1,-1c0,-0.55 0.45,-1 1,-1zm-296,-1c0.55,0 1,0.45 1,1c0,0.55 -0.45,1 -1,1c-0.55,0 -1,-0.45 -1,-1c0,-0.55 0.45,-1 1,-1zm277,0c-0.733,0 -1.033,0.3 -0.667,0.667c0.367,0.366 0.967,0.366 1.334,0c0.366,-0.367 0.066,-0.667 -0.667,-0.667zm-273.0586,-4c1.1318,0 2.0586,0.45 2.0586,1c0,0.55 -0.6484,1 -1.4414,1c-0.7929,0 -1.7187,-0.45 -2.0586,-1c-0.34,-0.55 0.3094,-1 1.4414,-1zm-20.9414,-7.654c0.00062,-0.823 2.64517,-0.173 4.25,1.046c2.125,1.613 2.27985,4.19 0.29785,4.951c-1.17304,0.45 -4.54785,-4 -4.54785,-5.997zm249.644,-6.861c0.7,-1.825 -0.559,-1.865 -2.894,-0.093c-2.269,1.723 -2.209,2.836 0.25,4.608c2.372,1.709 2.587,3 0.5,3c-0.833,0 -1.5,0.889 -1.5,2c0,1.1 0.413,2 0.918,2c0.505,0 1.585,0.256 2.401,0.569c0.858,0.329 1.457,0.013 1.424,-0.75c-0.254,-5.781 0.242,-6.819 3.257,-6.819c1.65,0 3,-0.502 3,-1.117c0,-0.652 -0.899,-0.881 -2.162,-0.551c-2.839,0.743 -5.923,-0.948 -5.194,-2.847zm20.672,9.52c0.996,-0.9 -2.153,-1.75 -4.566,-1.233c-0.962,0.206 -1.75,1.025 -1.75,1.82c0,1.476 4.494,1.058 6.316,-0.587zm22.295,-26.869c-4.346,0.533 -5.611,1.183 -5.611,2.884c0,1.034 -0.617,2.24 -1.37,2.68c-0.754,0.44 -1.317,1.897 -1.25,3.237c0.084,1.718 -0.52,2.603 -2.051,3c-6.115,1.585 -7.454,10.063 -1.588,10.063c1.969,0 2.259,-0.514 2.259,-4c0,-4.169 1.796,-5.495 2.71,-2c0.288,1.1 1.263,2 2.166,2c1.754,0 4.505,-3.575 3.724,-4.838c-0.257,-0.417 -0.093,-1.364 0.365,-2.105c1.283,-2.076 4.035,-0.43 4.035,2.412c0,1.392 0.45,2.531 1,2.531c1.953,0 0.961,-4.893 -1.611,-7.95c-1.788,-2.124 -2.463,-3.884 -2.139,-5.577c0.281,-1.47 0.022,-2.418 -0.639,-2.337zm-256.944,16.531c0.9549,-0.956 2.3326,-0.822 2.333,0.226c0,0.491 -0.675,1.152 -1.5,1.469c-1.5239,0.585 -2.048,-0.481 -0.833,-1.695zm238.533,-4.467c1.511,-1.511 0.668,-2.354 -1.2,-1.2c-0.793,0.49 -1.11,1.223 -0.704,1.629c0.405,0.406 1.262,0.213 1.904,-0.429zm-75.783,-3.557c-0.778,-2.026 -2.417,-2.163 -2.417,-0.202c0,1.501 1.795,3.097 2.59,2.302c0.251,-0.251 0.173,-1.196 -0.173,-2.1zm26.999,-2.037c-0.973,-0.373 -1.43,-0.15 -1.187,0.581c0.498,1.494 2.771,2.318 2.771,1.003c0,-0.537 -0.713,-1.249 -1.584,-1.584zm47.143,-1.606c-2.919,0 -4.19,1.544 -1.971,2.395c2.674,1.026 4.412,0.674 4.412,-0.895c0,-0.924 -0.938,-1.5 -2.441,-1.5zm-6.251,0.068c-0.527,-2.012 -2.678,-3.365 -3.71,-2.332c-1.145,1.146 -0.588,4.331 0.854,4.884c2.13,0.817 3.431,-0.346 2.856,-2.552zm-229.308,0.932c0,-0.733 0.3,-1.033 0.667,-0.667c0.366,0.367 0.366,0.967 0,1.334c-0.367,0.366 -0.667,0.066 -0.667,-0.667zm14.5,-9c-0.275,0 -0.5,0.225 -0.5,0.5c0,0.275 0.225,0.5 0.5,0.5c0.275,0 0.5,-0.225 0.5,-0.5c0,-0.275 -0.225,-0.5 -0.5,-0.5zm19.167,-2.333c0.9109,-0.912 3.3326,-0.844 3.333,0.092c0,0.418 -0.9001,1.322 -2,2.009c-2.006,1.253 -3.047,-0.388 -1.333,-2.101zm-0.667,-3.667c0.55,0 1,0.45 1,1c0,0.55 -0.45,1 -1,1c-0.55,0 -1,-0.45 -1,-1c0,-0.55 0.45,-1 1,-1zm212.5,-1c0.275,0 0.5,0.225 0.5,0.5c0,0.275 -0.225,0.5 -0.5,0.5c-0.275,0 -0.5,-0.225 -0.5,-0.5c0,-0.275 0.225,-0.5 0.5,-0.5zm-37.5,-3c-0.55,0 -1,0.423 -1,0.941c0,0.518 0.45,1.219 1,1.559c0.55,0.34 1,-0.084 1,-0.941c0,-0.857 -0.45,-1.559 -1,-1.559zm-47.07,-2.584c-1.543,-1.859 -2.573,-1.789 -3.347,0.227c-0.835,2.176 -0.185,2.683 2.394,1.864c1.703,-0.54 1.894,-0.958 0.953,-2.091zm93.534,-21.3574c1.49,-2.4107 3.536,-1.0272 3.536,2.3896c0,2.2929 0.838,4.3526 2.5,6.1465c1.375,1.4833 2.5,3.5373 2.5,4.5653c0,1.027 0.555,2.754 1.23,3.837c1.007,1.612 0.947,2.254 -0.326,3.528c-1.894,1.893 -6.903,0.442 -6.904,-2c0,-2.017 -1.212,-1.924 -4.115,0.315c-1.936,1.494 -8.047,4.16 -9.534,4.16c-1.314,0 0.031,-1.867 1.649,-2.29c1.1,-0.287 2,-1.023 2,-1.635c0,-0.672 -0.941,-0.877 -2.372,-0.518c-5.77,1.448 -4.507,-5.617 1.349,-7.549c4.47,-1.476 4.881,-3.508 0.708,-3.508c-2.806,-0.0001 -3.023,-0.6642 -1.389,-4.25c1.013,-2.223 2.148,-2.6328 6.358,-2.3018c1.185,0.0939 2.45,-0.3067 2.81,-0.8896zm-86.677,19.8034c-0.338,-1.016 -0.574,-1.016 -1.204,0.004c-0.834,1.349 0.006,2.88 1.021,1.863c0.332,-0.331 0.415,-1.172 0.183,-1.867zm-155.0155,-0.049c-0.618,-1.855 -2.7715,-2.162 -2.7715,-0.396c0,0.87 0.712,1.583 1.583,1.583c0.8707,0 1.406,-0.534 1.1885,-1.187zm191.2285,-0.813c-0.55,0 -1,0.45 -1,1c0,0.55 0.45,1 1,1c0.55,0 1,-0.45 1,-1c0,-0.55 -0.45,-1 -1,-1zm-163.5,-1c0.825,0 1.5,0.45 1.5,1c0,0.55 -0.675,1 -1.5,1c-0.825,0 -1.5,-0.45 -1.5,-1c0,-0.55 0.675,-1 1.5,-1zm146.172,-2.857c-1.153,-0.957 -1.54,-0.757 -2.01,1.042c-0.76,2.907 0.006,3.576 1.912,1.67c1.318,-1.319 1.332,-1.688 0.098,-2.712zm-141.672,0.857c0.55,0 1,0.45 1,1c0,0.55 -0.45,1 -1,1c-0.55,0 -1,-0.45 -1,-1c0,-0.55 0.45,-1 1,-1zm22.5,0c-0.825,0 -1.5,0.45 -1.5,1c0,0.55 0.675,1 1.5,1c0.825,0 1.5,-0.45 1.5,-1c0,-0.55 -0.675,-1 -1.5,-1zm123,1c-0.275,0 -0.5,0.225 -0.5,0.5c0,0.275 0.225,0.5 0.5,0.5c0.275,0 0.5,-0.225 0.5,-0.5c0,-0.275 -0.225,-0.5 -0.5,-0.5zm-155,-2c0.275,0 0.5,0.225 0.5,0.5c0,0.275 -0.225,0.5 -0.5,0.5c-0.275,0 -0.5,-0.225 -0.5,-0.5c0,-0.275 0.225,-0.5 0.5,-0.5zm60.5,-0.34c0,-1.289 -6.055,-6.38 -6.579,-5.532c-0.326,0.528 -0.097,1.558 0.51,2.289c0.607,0.731 0.803,2.114 0.435,3.073c-0.558,1.452 -0.352,1.579 1.232,0.761c1.046,-0.539 2.465,-0.779 3.152,-0.533c0.688,0.247 1.25,0.221 1.25,-0.058zm-25.5,-0.66c-0.275,0 -0.5,0.225 -0.5,0.5c0,0.275 0.225,0.5 0.5,0.5c0.275,0 0.5,-0.225 0.5,-0.5c0,-0.275 -0.225,-0.5 -0.5,-0.5zm4.5,-2c-0.55,0 -1,0.702 -1,1.559c0,0.857 0.45,1.281 1,0.941c0.55,-0.34 1,-1.041 1,-1.559c0,-0.518 -0.45,-0.941 -1,-0.941zm150.5,1c-0.275,0 -0.5,0.225 -0.5,0.5c0,0.275 0.225,0.5 0.5,0.5c0.275,0 0.5,-0.225 0.5,-0.5c0,-0.275 -0.225,-0.5 -0.5,-0.5zm-182.5,-2c0.55,0 1,0.423 1,0.941c-0.0002,0.518 -0.4501,1.219 -1,1.559c-0.55,0.34 -1,-0.084 -1,-0.941c0.0001,-0.857 0.4501,-1.559 1,-1.559zm41,1c-0.733,0 -1.033,0.3 -0.667,0.667c0.367,0.366 0.967,0.366 1.334,0c0.366,-0.367 0.066,-0.667 -0.667,-0.667zm-47,-2c0.5499,0 0.9999,0.702 1,1.559c0,0.857 -0.45,1.281 -1,0.941c-0.5499,-0.34 -0.9998,-1.041 -1,-1.559c0,-0.518 0.45,-0.941 1,-0.941zm-3.9072,-2.1729c0.6239,-1.1658 1.4668,-1.6667 1.9668,-1.1669c1.252,1.252 -0.0318,5.3398 -1.6768,5.3398c-1.6648,0 -1.7639,-1.419 -0.29,-4.1729zm98.2332,-1.9648c0.801,-3.0659 -1.793,-2.1133 -3.007,1.1045c-0.839,2.2212 -0.831,2.9122 0.03,2.7502c0.633,-0.119 1.038,0.346 0.901,1.033c-0.137,0.688 0.425,1.25 1.25,1.25c0.825,0 1.5,-0.417 1.5,-0.927c0,-0.509 0.787,-1.137 1.75,-1.394c1.459,-0.389 1.362,-0.591 -0.581,-1.2112c-1.637,-0.522 -2.185,-1.2967 -1.843,-2.6055zm74.753,3.7207c-0.043,-1.054 0.193,-1.6435 0.525,-1.3115c0.332,0.3323 0.367,1.1955 0.079,1.9165c-0.319,0.797 -0.556,0.56 -0.604,-0.605zm-222.9852,-4.583c1.048,0 1.9062,0.45 1.9062,1c0,0.55 0.7709,1 1.7139,1c1.542,0 1.5597,0.1541 0.1777,1.5371c-1.859,1.8579 -4.5072,1.0399 -5.1992,-1.6064c-0.3679,-1.4088 0.0096,-1.9306 1.4014,-1.9307zm7.9062,3c0.733,0 1.033,0.3 0.667,0.667c-0.367,0.366 -0.967,0.366 -1.334,0c-0.366,-0.367 -0.066,-0.667 0.667,-0.667zm54.75,-17.9199c2.1859,-1.273 3.2499,-1.3381 3.25,-0.1973c0,0.486 0.9039,1.1202 2.0098,1.4092c1.71,0.448 1.8634,0.9122 1.0254,3.1172c-0.7979,2.0967 -0.6902,2.5907 0.5625,2.5908c2.3318,0 1.2284,3.4927 -1.1163,3.5371c-1.0909,0.021 -2.5453,0.3846 -3.2324,0.8086c-1.5709,0.9709 -3.2488,-0.0126 -3.249,-1.9043c0,-0.793 -0.675,-1.4414 -1.5,-1.4414c-0.825,0 -1.5,-0.45 -1.5,-1c0,-0.55 0.45,-1 1,-1c0.55,0 1,-1.1032 1,-2.4502c0.0001,-1.3479 0.7871,-2.9087 1.75,-3.4697zm11.75,9.9199c0.275,0 0.5,0.225 0.5,0.5c0,0.275 -0.225,0.5 -0.5,0.5c-0.275,0 -0.5,-0.225 -0.5,-0.5c0,-0.275 0.225,-0.5 0.5,-0.5zm161.5,-3c-0.55,0 -1,0.4234 -1,0.9414c0,0.518 0.45,1.2187 1,1.5586c0.55,0.34 1,-0.0844 1,-0.9414c0,-0.8568 -0.45,-1.5586 -1,-1.5586zm-36.717,-1.917c-0.156,-0.229 -0.283,0.054 -0.283,0.6279c0,0.574 0.788,1.662 1.75,2.417c1.619,1.269 1.64,1.222 0.283,-0.6279c-0.807,-1.0998 -1.594,-2.1868 -1.75,-2.417zm-79.283,1.3584c0,-0.857 0.45,-1.2814 1,-0.9414c0.55,0.3399 1,1.0406 1,1.5586c0,0.518 -0.45,0.9414 -1,0.9414c-0.55,0 -1,-0.7018 -1,-1.5586zm-17.42,-5.5703c0.885,-1.433 4.634,-0.9868 6.591,0.7842c2.491,2.2539 2.304,3.0208 -0.888,3.6308c-2.805,0.536 -6.835,-2.584 -5.703,-4.415zm92.42,2.1289c-0.733,0 -1.033,0.3 -0.667,0.667c0.367,0.366 0.967,0.366 1.334,0c0.366,-0.367 0.066,-0.667 -0.667,-0.667zm-158.9336,-7c1.4415,0.001 0.7451,5.2433 -0.7617,5.7383c-0.9537,0.3119 -1.2558,-3.6525 -0.419,-5.4883c0.063,-0.137 0.5947,-0.25 1.1807,-0.25zm81.9336,-5c0.55,0 1,0.638 1,1.417c0,0.779 0.464,1.5708 1.031,1.7598c1.234,0.4114 -0.737,6.8232 -2.097,6.8232c-0.479,-0.0004 -0.612,-0.6753 -0.296,-1.5c0.4,-1.0409 -0.069,-1.4999 -1.531,-1.5c-1.206,0 -2.107,-0.641 -2.107,-1.5c0,-0.825 -0.45,-1.5 -1,-1.5c-0.55,0 -1,-0.45 -1,-1c0,-0.5156 0.989,-0.9436 2.245,-0.9951l0.51,-0.0098c1.256,-0.0515 2.245,-0.4795 2.245,-0.9951c0,-0.55 0.45,-1 1,-1zm-64,-1c0.55,0 1,0.45 1,1c0,0.55 0.675,1 1.5,1c0.825,0 1.5,0.675 1.5,1.5c0,0.8249 -0.4169,1.4998 -0.9268,1.5c-0.509,0 -1.1375,0.787 -1.3945,1.75c-0.395,1.4819 -0.5775,1.4059 -1.1894,-0.5c-0.89,-2.7739 -1.645,-2.8308 -3.2569,-0.25c-1.744,2.792 -4.4607,2.624 -4.0527,-0.25c0.229,-1.611 1.1013,-2.3404 3.0703,-2.5664c1.574,-0.182 2.75,-0.93 2.75,-1.75c0.0002,-0.7888 0.4501,-1.4336 1,-1.4336zm-31.7832,1.2061c-0.522,-1.637 4.5353,-0.5853 6.8623,1.4277c0.868,0.751 2.106,1.3662 2.75,1.3662c1.5609,0 1.4771,0.8373 -0.2578,2.5713c-1.9159,1.9169 -3.3181,1.8007 -3.9942,-0.3301c-0.3079,-0.9669 -1.546,-2.2049 -2.7529,-2.75c-1.207,-0.545 -2.3804,-1.5731 -2.6074,-2.2851zm78.7832,4.2275c0.001,-1.1666 2.499,-1.3221 7.872,-0.4912c0.205,0.0322 -0.125,0.6558 -0.731,1.3877c-1.388,1.6707 -7.141,0.9494 -7.141,-0.8965zm-60.2637,-5.8359c2.6839,-2.6843 5.3114,1.5875 2.7295,4.4394c-2.1059,2.3279 -4.4658,2.5729 -4.4658,0.4629c0,-0.825 0.4984,-1.5 1.1074,-1.5c0.6087,-0.0003 0.8643,-0.6315 0.5684,-1.4023c-0.2959,-0.771 -0.2684,-1.6711 0.0605,-2zm73.7637,-0.5977c0.275,0 0.5,0.225 0.5,0.5c0,0.275 -0.225,0.5 -0.5,0.5c-0.275,0 -0.5,-0.225 -0.5,-0.5c0,-0.275 0.225,-0.5 0.5,-0.5zm-14.5,-6.5c0,-2.9599 1.998,-3.2648 4.351,-0.665c1.369,1.5129 1.466,2.39 0.557,5c-1.32,3.786 -2.908,4.15 -2.908,0.665c0,-1.2894 -0.396,-2.3591 -0.898,-2.4873l-0.204,-0.0254c-0.502,-0.1282 -0.898,-1.1979 -0.898,-2.4873zm7.419,-1.3691c0.666,-1.0779 3.145,-0.5445 5.331,1.1474c2.158,1.669 1.364,2.7863 -1.5,2.1113c-3.393,-0.7999 -4.676,-1.8918 -3.831,-3.2587zm-9.919,0.8691c0.275,0 0.5,0.225 0.5,0.5c0,0.275 -0.225,0.5 -0.5,0.5c-0.275,0 -0.5,-0.225 -0.5,-0.5c0,-0.275 0.225,-0.5 0.5,-0.5zm-45,-2c0.275,0 0.5,0.225 0.5,0.5c0,0.275 -0.225,0.5 -0.5,0.5c-0.275,0 -0.5,-0.225 -0.5,-0.5c0,-0.275 0.225,-0.5 0.5,-0.5zm14,-5c0.275,0 0.5,0.225 0.5,0.5c0,0.275 -0.225,0.5 -0.5,0.5c-0.275,0 -0.5,-0.225 -0.5,-0.5c0,-0.275 0.225,-0.5 0.5,-0.5zm3.5,-1c0.733,0 1.033,0.3 0.667,0.667c-0.367,0.366 -0.967,0.366 -1.334,0c-0.366,-0.367 -0.066,-0.667 0.667,-0.667zm-3.3926,-7c0.2158,0.0009 0.3926,0.6755 0.3926,1.5c0,0.8249 -0.4359,1.4998 -0.9688,1.5c-0.5319,0 -0.7095,-0.675 -0.3935,-1.5c0.317,-0.825 0.7537,-1.5 0.9697,-1.5zm13.4236,-5c1.084,0.0001 1.969,0.6751 1.969,1.5c0,0.8248 -0.627,1.4997 -1.393,1.5c-0.7656,0 -1.6523,-0.675 -1.9693,-1.5c-0.3909,-1.0199 0.0546,-1.5 1.3933,-1.5zm-18.781,-4.2822c0.6879,-0.246 1.5945,-0.2525 2.0156,-0.0137c1.1419,0.6469 -0.1684,2.2956 -1.8242,2.2959c-1.769,0 -1.9094,-1.6662 -0.1914,-2.2822zm3.6914,-2.7178c0.5818,0.0002 1.0586,0.4501 1.0586,1c0,0.55 -0.1984,1 -0.4414,1c-0.2431,-0.0005 -0.7188,-0.4503 -1.0586,-1c-0.34,-0.55 -0.1406,-1 0.4414,-1zm-8.3027,-4.3057c0.3519,-0.3519 1.008,-0.4124 1.457,-0.1357c1.009,0.624 0.0239,3.4414 -1.2031,3.4414c-1.0255,-0.0007 -1.2064,-2.3526 -0.2539,-3.3057zm11.9062,-17.1035c2.842,-2.0789 5.9131,-0.2965 4.2041,2.4395c-1.4539,2.3278 -1.6625,2.3494 -4.1904,0.4375c-1.9156,-1.4487 -1.9156,-1.4861 -0.0137,-2.877zm-6.1035,-8.5908c0.8568,0.00014 1.5586,0.45009 1.5586,1c0,0.55 -0.4234,1 -0.9414,1c-0.518,-0.00024 -1.2187,-0.45015 -1.5586,-1c-0.34,-0.55 0.0844,-1 0.9414,-1zm3.5586,-6c0.55,0 1,0.45 1,1c0,0.55 -0.45,1 -1,1c-0.55,0 -1,-0.45 -1,-1c0,-0.55 0.45,-1 1,-1z"/>
  </g>
  <path stroke="null" style="vector-effect: non-scaling-stroke;" d="m75.0233,36.0631c0,0.0161 0,0.0322 -10.3111,0.0485c-10.3112,0.0163 -30.9335,0.0324 -41.7867,-0.0212c-10.8532,-0.0536 -11.3123,-0.1774 -11.2365,-0.3649c0.0758,-0.1876 0.7006,-0.4351 7.2517,-0.8445c6.5512,-0.4093 19.0099,-0.973 27.9825,-1.6031c14.1075,-0.9907 19.7461,-2.1327 19.6343,-2.3687c-0.2247,-0.4744 -1.9507,-0.2114 -8.4548,-1.4137c-6.504,-1.2022 -18.0303,-3.5051 -25.9643,-4.9377c-11.8885,-2.1465 -16.5187,-2.5067 -17.0063,-2.7128c-0.1215,-0.0514 0.4678,-0.3181 9.4924,-0.0543c9.0246,0.2637 26.5832,0.9833 35.8401,1.2983c9.257,0.3149 9.6802,0.2035 9.6277,0.1455c-0.0525,-0.0579 -0.5937,-0.059 -8.0456,-1.4556c-7.452,-1.3966 -21.7983,-4.1887 -31.1387,-5.7436c-13.1788,-2.1939 -18.0406,-2.2301 -19.6516,-2.6316c-0.8265,-0.2059 -1.67793,-0.3901 -1.75108,-0.5851c-0.07315,-0.195 0.65608,-0.3884 9.60448,-0.5221c8.9484,-0.1337 26.0938,-0.2017 36.2042,-0.3729c10.1104,-0.1711 12.6662,-0.4433 14.278,-0.6044c1.6119,-0.1611 2.2024,-0.2029 2.8107,-0.246" id="stroke0_24_3795_ref"/>
  <filter height="200%" width="200%" y="-50%" x="-50%" id="svg_20_blur">
   <feGaussianBlur stdDeviation="0" in="SourceGraphic"/>
  </filter>
 </defs>
 <g stroke="null">
  <title stroke="null">background</title>
  <rect stroke="null" fill="none" id="canvas_background" height="59" width="66" y="-1" x="-1"/>
 </g>
 <g stroke="null">
  <title stroke="null">Layer 1</title>
  <use filter="url(#svg_20_blur)" fill="none" stroke="null" x="-249.85035" y="201.11805" id="svg_20" transform="rotate(-15.50160026550293 30.700450897216786,27.54230499267578) matrix(0.1755783692710065,0,0,0.17136822628044704,46.38843746836621,-37.51216638678113) " xlink:href="#stroke0_24_3795"/>
  <use filter="url(#svg_20_blur)" fill="none" stroke="null" x="-249.85035" y="201.11805" id="svg_33" transform="rotate(-15.50160026550293 30.700450897216786,27.54230499267578) matrix(0.1755783692710065,0,0,0.17136822628044704,46.38843746836621,-37.51216638678113) " xlink:href="#stroke0_24_3795"/>
  <use filter="url(#svg_20_blur)" fill="none" stroke="null" x="-249.85035" y="201.11805" id="svg_34" transform="rotate(-15.50160026550293 30.700450897216786,27.54230499267578) matrix(0.1755783692710065,0,0,0.17136822628044704,46.38843746836621,-37.51216638678113) " xlink:href="#stroke0_24_3795"/>
  <use filter="url(#svg_20_blur)" fill="none" stroke="null" x="-249.85035" y="201.11805" id="svg_35" transform="rotate(-15.50160026550293 30.700450897216786,27.54230499267578) matrix(0.1755783692710065,0,0,0.17136822628044704,46.38843746836621,-37.51216638678113) " xlink:href="#stroke0_24_3795"/>
 </g>
</svg>