<svg width="136" height="124" viewBox="0 0 136 124" fill="none" xmlns="http://www.w3.org/2000/svg">
<circle cx="63" cy="60" r="19.5" stroke="#4E170B"/>
<path d="M62.5 36C60.1667 35 56 31.5 58 25.5C60.5 18 61 15 59.5 12C58 9 56.5 0.5 58 0.5" stroke="#4E170B"/>
<path d="M78 40C81.1667 39 87.4 36.1 87 32.5C86.5 28 91.2519 22.3321 92.5 21.5C94 20.5 104 15.5 104 12" stroke="#4E170B"/>
<path d="M70.5 37.5L77 17.5" stroke="#4E170B"/>
<path d="M66.4018 84.1473C68.8249 84.9042 73.3268 87.9611 71.949 94.1337C70.2268 101.85 70.0353 104.885 71.8334 107.716C73.6315 110.548 75.9904 118.85 74.4982 119.003" stroke="#4E170B"/>
<path d="M50.5747 81.7487C47.5265 83.0664 41.6214 86.5869 42.3864 90.1273C43.3426 94.5529 39.1934 100.676 38.0367 101.631C36.6465 102.779 27.2085 108.772 27.5654 112.254" stroke="#4E170B"/>
<path d="M58.2906 83.4709L53.8638 104.029" stroke="#4E170B"/>
<path d="M86.7295 50.0415C86.7004 47.5031 88.2162 42.2769 94.5125 41.6793C102.383 40.9324 105.329 40.1763 107.466 37.5912C109.603 35.006 116.77 30.1964 117.377 31.5682" stroke="#4E170B"/>
<path d="M89.3402 65.835C91.5355 68.3267 96.7087 72.8546 99.8394 71.0327C103.753 68.7555 110.858 70.809 112.124 71.614C113.645 72.5814 122.262 79.7048 125.463 78.2892" stroke="#4E170B"/>
<path d="M88.5932 57.9647L109.513 55.8205" stroke="#4E170B"/>
<path d="M37.9924 63.6677C37.1383 66.0583 33.902 70.4329 27.79 68.8068C20.1501 66.7743 17.1249 66.4603 14.2232 68.1425C11.3214 69.8247 2.93015 71.8462 2.83762 70.349" stroke="#4E170B"/>
<path d="M41.0286 47.9505C39.8352 44.8515 36.5562 38.809 32.9877 39.4303C28.5272 40.2069 22.5769 35.8137 21.6694 34.6193C20.5788 33.1838 14.9714 23.5113 11.4781 23.7272" stroke="#4E170B"/>
<path d="M38.9961 55.5904L18.6332 50.3365" stroke="#4E170B"/>
<path d="M80 79C82.1667 82.8333 87.8 90.8 93 92C99.5 93.5 106 100.5 107.5 105C108.7 108.6 111 110.167 112 110.5" stroke="#4E170B"/>
<path d="M42.3528 74.944C38.3338 76.7429 29.8755 81.607 28.1947 86.6721C26.0938 93.0034 18.517 98.8208 13.8965 99.8937C10.2001 100.752 8.42533 102.895 8 103.86" stroke="#4E170B"/>
<path d="M49.2856 39.0701C47.5269 35.0332 42.7476 26.5268 37.6996 24.7955C31.3895 22.6314 25.6482 14.9968 24.6216 10.3658C23.8003 6.66098 21.6746 4.86488 20.7144 4.42993" stroke="#4E170B"/>
</svg>
