<svg width="158" height="98" viewBox="0 0 158 98" fill="none" xmlns="http://www.w3.org/2000/svg">
<g filter="url(#filter0_d_1_32)">
<path d="M13.3775 35.5725C-3.82251 49.1725 7.87749 58.9058 15.8775 62.0725C17.0775 75.6725 27.7108 74.7391 32.8775 72.5725C33.6775 80.9725 40.5442 83.0725 43.8775 83.0725C54.6775 83.8725 61.3775 78.7391 63.3775 76.0725C70.9775 91.2725 97.5442 90.0725 109.877 87.5725C134.677 83.5725 135.544 68.5725 132.877 61.5725C144.877 63.5725 150.877 54.7391 152.377 50.0725C156.377 39.2725 147.711 33.5725 142.877 32.0725C151.677 21.6725 141.877 10.4058 135.877 6.07246C123.877 -3.12754 113.544 3.57245 109.877 8.07245C101.477 -6.32755 94.0442 3.07245 91.3775 9.57245C90.1775 1.17245 87.2108 4.73912 85.8775 7.57246C77.0775 -3.22754 67.8775 5.73912 64.3775 11.5725C49.5775 -2.42755 36.5442 8.73912 31.8775 16.0725C15.4775 18.8725 14.7108 28.5725 16.3775 33.0725C13.9775 32.6725 13.3775 34.5725 13.3775 35.5725Z" stroke="#4E170B" shape-rendering="crispEdges"/>
</g>
<defs>
<filter id="filter0_d_1_32" x="0" y="0" width="157.903" height="97.5801" filterUnits="userSpaceOnUse" color-interpolation-filters="sRGB">
<feFlood flood-opacity="0" result="BackgroundImageFix"/>
<feColorMatrix in="SourceAlpha" type="matrix" values="0 0 0 0 0 0 0 0 0 0 0 0 0 0 0 0 0 0 127 0" result="hardAlpha"/>
<feOffset dy="4"/>
<feGaussianBlur stdDeviation="2"/>
<feComposite in2="hardAlpha" operator="out"/>
<feColorMatrix type="matrix" values="0 0 0 0 0 0 0 0 0 0 0 0 0 0 0 0 0 0 0.25 0"/>
<feBlend mode="normal" in2="BackgroundImageFix" result="effect1_dropShadow_1_32"/>
<feBlend mode="normal" in="SourceGraphic" in2="effect1_dropShadow_1_32" result="shape"/>
</filter>
</defs>
</svg>
